<svg xmlns="http://www.w3.org/2000/svg" width="1920" height="1080"><path d="M795,1432L-80,1475L1020,1461Z" fill="#5e965d" stroke="#5e965d" stroke-width="1.51"/><path d="M-337,-368L-90,-366L1332,-452Z" fill="#e6f5b9" stroke="#e6f5b9" stroke-width="1.51"/><path d="M161,-361L1089,-388L1332,-452Z" fill="#c2e5a9" stroke="#c2e5a9" stroke-width="1.51"/><path d="M-90,-366L161,-361L1332,-452Z" fill="#dcf1b4" stroke="#dcf1b4" stroke-width="1.51"/><path d="M1910,-30L2026,261L2253,-144Z" fill="#77aa6b" stroke="#77aa6b" stroke-width="1.51"/><path d="M2041,436L2046,864L2259,489Z" fill="#3e9053" stroke="#3e9053" stroke-width="1.51"/><path d="M1899,1357L1478,1454L2274,1411Z" fill="#0a6837" stroke="#0a6837" stroke-width="1.51"/><path d="M2253,-144L2026,261L2320,353Z" fill="#699e63" stroke="#699e63" stroke-width="1.51"/><path d="M2259,489L2046,864L2323,749Z" fill="#30864c" stroke="#30864c" stroke-width="1.51"/><path d="M2046,864L2179,1081L2323,749Z" fill="#1e7c43" stroke="#1e7c43" stroke-width="1.51"/><path d="M2179,1081L2274,1411L2323,749Z" fill="#116b39" stroke="#116b39" stroke-width="1.51"/><path d="M2320,353L2259,489L2323,749Z" fill="#428a52" stroke="#428a52" stroke-width="1.51"/><path d="M2041,436L2259,489L2320,353Z" fill="#4f9358" stroke="#4f9358" stroke-width="1.51"/><path d="M2026,261L2041,436L2320,353Z" fill="#599b5d" stroke="#599b5d" stroke-width="1.51"/><path d="M1332,-452L1762,-261L2017,-330Z" fill="#94c085" stroke="#94c085" stroke-width="1.51"/><path d="M1901,1159L1899,1357L2179,1081Z" fill="#0d703a" stroke="#0d703a" stroke-width="1.51"/><path d="M2179,1081L1899,1357L2274,1411Z" fill="#026736" stroke="#026736" stroke-width="1.51"/><path d="M2187,-247L1910,-30L2253,-144Z" fill="#80ab70" stroke="#80ab70" stroke-width="1.51"/><path d="M2017,-330L1910,-30L2187,-247Z" fill="#85b174" stroke="#85b174" stroke-width="1.51"/><path d="M2046,864L1901,1159L2179,1081Z" fill="#17783e" stroke="#17783e" stroke-width="1.51"/><path d="M1614,1338L1478,1454L1899,1357Z" fill="#15733c" stroke="#15733c" stroke-width="1.51"/><path d="M1762,-261L1910,-30L2017,-330Z" fill="#8bb777" stroke="#8bb777" stroke-width="1.51"/><path d="M1910,-30L1723,241L2026,261Z" fill="#72ad69" stroke="#72ad69" stroke-width="1.51"/><path d="M2026,261L1794,442L2041,436Z" fill="#5aa15f" stroke="#5aa15f" stroke-width="1.51"/><path d="M1702,1094L1901,1159L2046,864Z" fill="#1d7e41" stroke="#1d7e41" stroke-width="1.51"/><path d="M1632,830L1702,1094L2046,864Z" fill="#278a48" stroke="#278a48" stroke-width="1.51"/><path d="M2041,436L1794,442L2046,864Z" fill="#439857" stroke="#439857" stroke-width="1.51"/><path d="M1794,442L1632,830L2046,864Z" fill="#399752" stroke="#399752" stroke-width="1.51"/><path d="M1723,241L1794,442L2026,261Z" fill="#64a863" stroke="#64a863" stroke-width="1.51"/><path d="M1614,1338L1899,1357L1901,1159Z" fill="#11733b" stroke="#11733b" stroke-width="1.51"/><path d="M1702,1094L1614,1338L1901,1159Z" fill="#1a7b3f" stroke="#1a7b3f" stroke-width="1.51"/><path d="M1762,-261L1612,-99L1910,-30Z" fill="#8aba76" stroke="#8aba76" stroke-width="1.51"/><path d="M1612,-99L1723,241L1910,-30Z" fill="#81b770" stroke="#81b770" stroke-width="1.51"/><path d="M1612,-99L1422,152L1723,241Z" fill="#81bd73" stroke="#81bd73" stroke-width="1.51"/><path d="M1723,241L1454,628L1794,442Z" fill="#5dab63" stroke="#5dab63" stroke-width="1.51"/><path d="M1454,628L1632,830L1794,442Z" fill="#48a35b" stroke="#48a35b" stroke-width="1.51"/><path d="M1422,152L1454,628L1723,241Z" fill="#6cb66b" stroke="#6cb66b" stroke-width="1.51"/><path d="M1332,-452L1612,-99L1762,-261Z" fill="#98c684" stroke="#98c684" stroke-width="1.51"/><path d="M1632,830L1379,1097L1702,1094Z" fill="#2c8e4a" stroke="#2c8e4a" stroke-width="1.51"/><path d="M1379,1097L1614,1338L1702,1094Z" fill="#228444" stroke="#228444" stroke-width="1.51"/><path d="M178,1394L-80,1475L795,1432Z" fill="#6f9f65" stroke="#6f9f65" stroke-width="1.51"/><path d="M1372,-5L1422,152L1612,-99Z" fill="#8dc67a" stroke="#8dc67a" stroke-width="1.51"/><path d="M1332,-452L1372,-5L1612,-99Z" fill="#9acd84" stroke="#9acd84" stroke-width="1.51"/><path d="M1454,628L1364,725L1632,830Z" fill="#43a65b" stroke="#43a65b" stroke-width="1.51"/><path d="M1364,725L1379,1097L1632,830Z" fill="#379d54" stroke="#379d54" stroke-width="1.51"/><path d="M1379,1097L1478,1454L1614,1338Z" fill="#1f8244" stroke="#1f8244" stroke-width="1.51"/><path d="M161,-361L420,-263L919,-304Z" fill="#d9f0ac" stroke="#d9f0ac" stroke-width="1.51"/><path d="M161,-361L919,-304L1089,-388Z" fill="#cbe9a9" stroke="#cbe9a9" stroke-width="1.51"/><path d="M1332,-452L1089,-388L1372,-5Z" fill="#a7d790" stroke="#a7d790" stroke-width="1.51"/><path d="M1089,-388L1054,-61L1372,-5Z" fill="#a6d78d" stroke="#a6d78d" stroke-width="1.51"/><path d="M1422,152L1132,273L1454,628Z" fill="#73c172" stroke="#73c172" stroke-width="1.51"/><path d="M1132,273L1095,504L1454,628Z" fill="#6dbf72" stroke="#6dbf72" stroke-width="1.51"/><path d="M1379,1097L1020,1461L1478,1454Z" fill="#28894a" stroke="#28894a" stroke-width="1.51"/><path d="M998,1161L1020,1461L1379,1097Z" fill="#3b9452" stroke="#3b9452" stroke-width="1.51"/><path d="M1364,725L1018,867L1379,1097Z" fill="#42a65b" stroke="#42a65b" stroke-width="1.51"/><path d="M1095,504L1364,725L1454,628Z" fill="#57b567" stroke="#57b567" stroke-width="1.51"/><path d="M1372,-5L1132,273L1422,152Z" fill="#89ca7b" stroke="#89ca7b" stroke-width="1.51"/><path d="M1054,-61L1132,273L1372,-5Z" fill="#97d183" stroke="#97d183" stroke-width="1.51"/><path d="M1018,867L998,1161L1379,1097Z" fill="#449f58" stroke="#449f58" stroke-width="1.51"/><path d="M1095,504L1018,867L1364,725Z" fill="#5ab669" stroke="#5ab669" stroke-width="1.51"/><path d="M569,1359L178,1394L795,1432Z" fill="#639d60" stroke="#639d60" stroke-width="1.51"/><path d="M919,-304L1054,-61L1089,-388Z" fill="#b6df97" stroke="#b6df97" stroke-width="1.51"/><path d="M901,856L1018,867L1095,504Z" fill="#61ba6c" stroke="#61ba6c" stroke-width="1.51"/><path d="M805,490L901,856L1095,504Z" fill="#73c375" stroke="#73c375" stroke-width="1.51"/><path d="M1054,-61L899,-47L1132,273Z" fill="#a3d88a" stroke="#a3d88a" stroke-width="1.51"/><path d="M899,-47L741,325L1132,273Z" fill="#9ed688" stroke="#9ed688" stroke-width="1.51"/><path d="M805,490L1095,504L1132,273Z" fill="#81ca7b" stroke="#81ca7b" stroke-width="1.51"/><path d="M741,325L805,490L1132,273Z" fill="#90d082" stroke="#90d082" stroke-width="1.51"/><path d="M901,856L998,1161L1018,867Z" fill="#54ab62" stroke="#54ab62" stroke-width="1.51"/><path d="M998,1161L795,1432L1020,1461Z" fill="#459456" stroke="#459456" stroke-width="1.51"/><path d="M919,-304L899,-47L1054,-61Z" fill="#b3df95" stroke="#b3df95" stroke-width="1.51"/><path d="M901,856L759,1079L998,1161Z" fill="#57a960" stroke="#57a960" stroke-width="1.51"/><path d="M759,1079L795,1432L998,1161Z" fill="#519f5c" stroke="#519f5c" stroke-width="1.51"/><path d="M566,180L741,325L899,-47Z" fill="#aede8f" stroke="#aede8f" stroke-width="1.51"/><path d="M611,-101L566,180L899,-47Z" fill="#bde496" stroke="#bde496" stroke-width="1.51"/><path d="M805,490L623,549L901,856Z" fill="#7dc779" stroke="#7dc779" stroke-width="1.51"/><path d="M611,-101L899,-47L919,-304Z" fill="#bee499" stroke="#bee499" stroke-width="1.51"/><path d="M420,-263L611,-101L919,-304Z" fill="#ceeaa1" stroke="#ceeaa1" stroke-width="1.51"/><path d="M759,1079L569,1359L795,1432Z" fill="#5a9f5e" stroke="#5a9f5e" stroke-width="1.51"/><path d="M455,887L759,1079L901,856Z" fill="#6ab56a" stroke="#6ab56a" stroke-width="1.51"/><path d="M623,549L455,887L901,856Z" fill="#79c475" stroke="#79c475" stroke-width="1.51"/><path d="M741,325L623,549L805,490Z" fill="#93d283" stroke="#93d283" stroke-width="1.51"/><path d="M442,1046L569,1359L759,1079Z" fill="#68aa65" stroke="#68aa65" stroke-width="1.51"/><path d="M455,887L442,1046L759,1079Z" fill="#72b56b" stroke="#72b56b" stroke-width="1.51"/><path d="M566,180L623,549L741,325Z" fill="#a3d989" stroke="#a3d989" stroke-width="1.51"/><path d="M284,-136L566,180L611,-101Z" fill="#ccea9d" stroke="#ccea9d" stroke-width="1.51"/><path d="M218,566L455,887L623,549Z" fill="#91cf81" stroke="#91cf81" stroke-width="1.51"/><path d="M274,355L218,566L623,549Z" fill="#a6d98b" stroke="#a6d98b" stroke-width="1.51"/><path d="M566,180L274,355L623,549Z" fill="#abdc8d" stroke="#abdc8d" stroke-width="1.51"/><path d="M218,566L300,869L455,887Z" fill="#8ecd7e" stroke="#8ecd7e" stroke-width="1.51"/><path d="M420,-263L284,-136L611,-101Z" fill="#d7efa5" stroke="#d7efa5" stroke-width="1.51"/><path d="M284,-136L274,355L566,180Z" fill="#c7e89a" stroke="#c7e89a" stroke-width="1.51"/><path d="M442,1046L178,1394L569,1359Z" fill="#6fa967" stroke="#6fa967" stroke-width="1.51"/><path d="M156,1112L178,1394L442,1046Z" fill="#7bb16d" stroke="#7bb16d" stroke-width="1.51"/><path d="M300,869L442,1046L455,887Z" fill="#7fbe73" stroke="#7fbe73" stroke-width="1.51"/><path d="M300,869L156,1112L442,1046Z" fill="#81bb72" stroke="#81bb72" stroke-width="1.51"/><path d="M161,-361L284,-136L420,-263Z" fill="#e5f5ad" stroke="#e5f5ad" stroke-width="1.51"/><path d="M-130,-9L-34,341L274,355Z" fill="#cfeca0" stroke="#cfeca0" stroke-width="1.51"/><path d="M-130,-9L274,355L284,-136Z" fill="#d9f0a3" stroke="#d9f0a3" stroke-width="1.51"/><path d="M218,566L-37,858L300,869Z" fill="#98d183" stroke="#98d183" stroke-width="1.51"/><path d="M-37,858L156,1112L300,869Z" fill="#8dc37a" stroke="#8dc37a" stroke-width="1.51"/><path d="M28,505L218,566L274,355Z" fill="#b2df92" stroke="#b2df92" stroke-width="1.51"/><path d="M161,-361L-130,-9L284,-136Z" fill="#e9f7ae" stroke="#e9f7ae" stroke-width="1.51"/><path d="M-34,341L28,505L274,355Z" fill="#bde397" stroke="#bde397" stroke-width="1.51"/><path d="M-90,-366L-130,-9L161,-361Z" fill="#f2fab6" stroke="#f2fab6" stroke-width="1.51"/><path d="M156,1112L-180,1174L178,1394Z" fill="#82b271" stroke="#82b271" stroke-width="1.51"/><path d="M28,505L-37,858L218,566Z" fill="#a6d88c" stroke="#a6d88c" stroke-width="1.51"/><path d="M-180,1174L-80,1475L178,1394Z" fill="#80ab70" stroke="#80ab70" stroke-width="1.51"/><path d="M-37,858L-180,1174L156,1112Z" fill="#8ebe78" stroke="#8ebe78" stroke-width="1.51"/><path d="M-295,559L-335,783L-37,858Z" fill="#a8d892" stroke="#a8d892" stroke-width="1.51"/><path d="M-34,341L-295,559L28,505Z" fill="#bee49a" stroke="#bee49a" stroke-width="1.51"/><path d="M-295,559L-37,858L28,505Z" fill="#aedb91" stroke="#aedb91" stroke-width="1.51"/><path d="M-296,-27L-393,324L-130,-9Z" fill="#e4f4b2" stroke="#e4f4b2" stroke-width="1.51"/><path d="M-296,-27L-130,-9L-90,-366Z" fill="#f2fab6" stroke="#f2fab6" stroke-width="1.51"/><path d="M-337,-368L-296,-27L-90,-366Z" fill="#f9fcc0" stroke="#f9fcc0" stroke-width="1.51"/><path d="M-335,783L-180,1174L-37,858Z" fill="#9ac985" stroke="#9ac985" stroke-width="1.51"/><path d="M-130,-9L-393,324L-34,341Z" fill="#d8efa8" stroke="#d8efa8" stroke-width="1.51"/><path d="M-393,324L-295,559L-34,341Z" fill="#c7e8a4" stroke="#c7e8a4" stroke-width="1.51"/><path d="M-180,1174L-433,1397L-80,1475Z" fill="#86ae78" stroke="#86ae78" stroke-width="1.51"/><path d="M-335,783L-434,1187L-180,1174Z" fill="#95c086" stroke="#95c086" stroke-width="1.51"/><path d="M-434,1187L-433,1397L-180,1174Z" fill="#8cb582" stroke="#8cb582" stroke-width="1.51"/><path d="M-337,-368L-393,324L-296,-27Z" fill="#eef8bb" stroke="#eef8bb" stroke-width="1.51"/><path d="M-393,324L-335,783L-295,559Z" fill="#bae1a3" stroke="#bae1a3" stroke-width="1.51"/><path d="M-393,324L-434,1187L-335,783Z" fill="#a7d69a" stroke="#a7d69a" stroke-width="1.51"/></svg>