<svg xmlns="http://www.w3.org/2000/svg" width="1920" height="1080"><path d="M795,1432L-80,1475L1020,1461Z" fill="#bf5340" stroke="#bf5340" stroke-width="1.51"/><path d="M-337,-368L-90,-366L1332,-452Z" fill="#ffcfbd" stroke="#ffcfbd" stroke-width="1.51"/><path d="M161,-361L1089,-388L1332,-452Z" fill="#ffb29b" stroke="#ffb29b" stroke-width="1.51"/><path d="M-90,-366L161,-361L1332,-452Z" fill="#ffc7b2" stroke="#ffc7b2" stroke-width="1.51"/><path d="M1910,-30L2026,261L2253,-144Z" fill="#d46e57" stroke="#d46e57" stroke-width="1.51"/><path d="M2041,436L2046,864L2259,489Z" fill="#ca3b2b" stroke="#ca3b2b" stroke-width="1.51"/><path d="M1899,1357L1478,1454L2274,1411Z" fill="#a30d16" stroke="#a30d16" stroke-width="1.51"/><path d="M2253,-144L2026,261L2320,353Z" fill="#c75f4a" stroke="#c75f4a" stroke-width="1.51"/><path d="M2259,489L2046,864L2323,749Z" fill="#bf2f24" stroke="#bf2f24" stroke-width="1.51"/><path d="M2046,864L2179,1081L2323,749Z" fill="#b81d1c" stroke="#b81d1c" stroke-width="1.51"/><path d="M2179,1081L2274,1411L2323,749Z" fill="#a50e16" stroke="#a50e16" stroke-width="1.51"/><path d="M2320,353L2259,489L2323,749Z" fill="#ba3c2c" stroke="#ba3c2c" stroke-width="1.51"/><path d="M2041,436L2259,489L2320,353Z" fill="#c44835" stroke="#c44835" stroke-width="1.51"/><path d="M2026,261L2041,436L2320,353Z" fill="#cb513c" stroke="#cb513c" stroke-width="1.51"/><path d="M1332,-452L1762,-261L2017,-330Z" fill="#ef8d79" stroke="#ef8d79" stroke-width="1.51"/><path d="M1901,1159L1899,1357L2179,1081Z" fill="#b11218" stroke="#b11218" stroke-width="1.51"/><path d="M2179,1081L1899,1357L2274,1411Z" fill="#a30e15" stroke="#a30e15" stroke-width="1.51"/><path d="M2187,-247L1910,-30L2253,-144Z" fill="#d37965" stroke="#d37965" stroke-width="1.51"/><path d="M2017,-330L1910,-30L2187,-247Z" fill="#da7f6b" stroke="#da7f6b" stroke-width="1.51"/><path d="M2046,864L1901,1159L2179,1081Z" fill="#ba161a" stroke="#ba161a" stroke-width="1.51"/><path d="M1614,1338L1478,1454L1899,1357Z" fill="#b11318" stroke="#b11318" stroke-width="1.51"/><path d="M1762,-261L1910,-30L2017,-330Z" fill="#e2826e" stroke="#e2826e" stroke-width="1.51"/><path d="M1910,-30L1723,241L2026,261Z" fill="#dd664e" stroke="#dd664e" stroke-width="1.51"/><path d="M2026,261L1794,442L2041,436Z" fill="#d7523c" stroke="#d7523c" stroke-width="1.51"/><path d="M1702,1094L1901,1159L2046,864Z" fill="#c2171b" stroke="#c2171b" stroke-width="1.51"/><path d="M1632,830L1702,1094L2046,864Z" fill="#cf211f" stroke="#cf211f" stroke-width="1.51"/><path d="M2041,436L1794,442L2046,864Z" fill="#d43f2d" stroke="#d43f2d" stroke-width="1.51"/><path d="M1794,442L1632,830L2046,864Z" fill="#d83428" stroke="#d83428" stroke-width="1.51"/><path d="M1723,241L1794,442L2026,261Z" fill="#dd5942" stroke="#dd5942" stroke-width="1.51"/><path d="M1614,1338L1899,1357L1901,1159Z" fill="#b41218" stroke="#b41218" stroke-width="1.51"/><path d="M1702,1094L1614,1338L1901,1159Z" fill="#be151a" stroke="#be151a" stroke-width="1.51"/><path d="M1762,-261L1612,-99L1910,-30Z" fill="#e87f69" stroke="#e87f69" stroke-width="1.51"/><path d="M1612,-99L1723,241L1910,-30Z" fill="#e6735a" stroke="#e6735a" stroke-width="1.51"/><path d="M1612,-99L1422,152L1723,241Z" fill="#ed7258" stroke="#ed7258" stroke-width="1.51"/><path d="M1723,241L1454,628L1794,442Z" fill="#e6533c" stroke="#e6533c" stroke-width="1.51"/><path d="M1454,628L1632,830L1794,442Z" fill="#e5412f" stroke="#e5412f" stroke-width="1.51"/><path d="M1422,152L1454,628L1723,241Z" fill="#ed5f46" stroke="#ed5f46" stroke-width="1.51"/><path d="M1332,-452L1612,-99L1762,-261Z" fill="#f48e78" stroke="#f48e78" stroke-width="1.51"/><path d="M1632,830L1379,1097L1702,1094Z" fill="#d42321" stroke="#d42321" stroke-width="1.51"/><path d="M1379,1097L1614,1338L1702,1094Z" fill="#c81d1d" stroke="#c81d1d" stroke-width="1.51"/><path d="M178,1394L-80,1475L795,1432Z" fill="#c46450" stroke="#c46450" stroke-width="1.51"/><path d="M1372,-5L1422,152L1612,-99Z" fill="#f37d62" stroke="#f37d62" stroke-width="1.51"/><path d="M1332,-452L1372,-5L1612,-99Z" fill="#f98e75" stroke="#f98e75" stroke-width="1.51"/><path d="M1454,628L1364,725L1632,830Z" fill="#ea3d2d" stroke="#ea3d2d" stroke-width="1.51"/><path d="M1364,725L1379,1097L1632,830Z" fill="#e23127" stroke="#e23127" stroke-width="1.51"/><path d="M1379,1097L1478,1454L1614,1338Z" fill="#c31f1d" stroke="#c31f1d" stroke-width="1.51"/><path d="M161,-361L420,-263L919,-304Z" fill="#ffc1ab" stroke="#ffc1ab" stroke-width="1.51"/><path d="M161,-361L919,-304L1089,-388Z" fill="#ffb7a0" stroke="#ffb7a0" stroke-width="1.51"/><path d="M1332,-452L1089,-388L1372,-5Z" fill="#ff9a81" stroke="#ff9a81" stroke-width="1.51"/><path d="M1089,-388L1054,-61L1372,-5Z" fill="#ff977b" stroke="#ff977b" stroke-width="1.51"/><path d="M1422,152L1132,273L1454,628Z" fill="#f66549" stroke="#f66549" stroke-width="1.51"/><path d="M1132,273L1095,504L1454,628Z" fill="#f86144" stroke="#f86144" stroke-width="1.51"/><path d="M1379,1097L1020,1461L1478,1454Z" fill="#c72921" stroke="#c72921" stroke-width="1.51"/><path d="M998,1161L1020,1461L1379,1097Z" fill="#d33829" stroke="#d33829" stroke-width="1.51"/><path d="M1364,725L1018,867L1379,1097Z" fill="#ea3b2c" stroke="#ea3b2c" stroke-width="1.51"/><path d="M1095,504L1364,725L1454,628Z" fill="#f44f37" stroke="#f44f37" stroke-width="1.51"/><path d="M1372,-5L1132,273L1422,152Z" fill="#f9795c" stroke="#f9795c" stroke-width="1.51"/><path d="M1054,-61L1132,273L1372,-5Z" fill="#fb8567" stroke="#fb8567" stroke-width="1.51"/><path d="M1018,867L998,1161L1379,1097Z" fill="#e23c2d" stroke="#e23c2d" stroke-width="1.51"/><path d="M1095,504L1018,867L1364,725Z" fill="#f55138" stroke="#f55138" stroke-width="1.51"/><path d="M569,1359L178,1394L795,1432Z" fill="#c85a45" stroke="#c85a45" stroke-width="1.51"/><path d="M919,-304L1054,-61L1089,-388Z" fill="#ffa58a" stroke="#ffa58a" stroke-width="1.51"/><path d="M901,856L1018,867L1095,504Z" fill="#f6573c" stroke="#f6573c" stroke-width="1.51"/><path d="M805,490L901,856L1095,504Z" fill="#fa6647" stroke="#fa6647" stroke-width="1.51"/><path d="M1054,-61L899,-47L1132,273Z" fill="#fd8e6f" stroke="#fd8e6f" stroke-width="1.51"/><path d="M899,-47L741,325L1132,273Z" fill="#fd8969" stroke="#fd8969" stroke-width="1.51"/><path d="M805,490L1095,504L1132,273Z" fill="#fb7151" stroke="#fb7151" stroke-width="1.51"/><path d="M741,325L805,490L1132,273Z" fill="#fc7c5b" stroke="#fc7c5b" stroke-width="1.51"/><path d="M901,856L998,1161L1018,867Z" fill="#ea4c35" stroke="#ea4c35" stroke-width="1.51"/><path d="M998,1161L795,1432L1020,1461Z" fill="#cb422f" stroke="#cb422f" stroke-width="1.51"/><path d="M919,-304L899,-47L1054,-61Z" fill="#ffa083" stroke="#ffa083" stroke-width="1.51"/><path d="M901,856L759,1079L998,1161Z" fill="#e54e37" stroke="#e54e37" stroke-width="1.51"/><path d="M759,1079L795,1432L998,1161Z" fill="#d74a36" stroke="#d74a36" stroke-width="1.51"/><path d="M566,180L741,325L899,-47Z" fill="#fd9575" stroke="#fd9575" stroke-width="1.51"/><path d="M611,-101L566,180L899,-47Z" fill="#fda385" stroke="#fda385" stroke-width="1.51"/><path d="M805,490L623,549L901,856Z" fill="#fa6e4e" stroke="#fa6e4e" stroke-width="1.51"/><path d="M611,-101L899,-47L919,-304Z" fill="#ffa98d" stroke="#ffa98d" stroke-width="1.51"/><path d="M420,-263L611,-101L919,-304Z" fill="#ffb59d" stroke="#ffb59d" stroke-width="1.51"/><path d="M759,1079L569,1359L795,1432Z" fill="#d3523c" stroke="#d3523c" stroke-width="1.51"/><path d="M455,887L759,1079L901,856Z" fill="#ed5d44" stroke="#ed5d44" stroke-width="1.51"/><path d="M623,549L455,887L901,856Z" fill="#f86a4d" stroke="#f86a4d" stroke-width="1.51"/><path d="M741,325L623,549L805,490Z" fill="#fc7e5d" stroke="#fc7e5d" stroke-width="1.51"/><path d="M442,1046L569,1359L759,1079Z" fill="#dd5c44" stroke="#dd5c44" stroke-width="1.51"/><path d="M455,887L442,1046L759,1079Z" fill="#e9634a" stroke="#e9634a" stroke-width="1.51"/><path d="M566,180L623,549L741,325Z" fill="#fc8b69" stroke="#fc8b69" stroke-width="1.51"/><path d="M284,-136L566,180L611,-101Z" fill="#feb094" stroke="#feb094" stroke-width="1.51"/><path d="M218,566L455,887L623,549Z" fill="#fb7f60" stroke="#fb7f60" stroke-width="1.51"/><path d="M274,355L218,566L623,549Z" fill="#fe8f70" stroke="#fe8f70" stroke-width="1.51"/><path d="M566,180L274,355L623,549Z" fill="#fd9272" stroke="#fd9272" stroke-width="1.51"/><path d="M218,566L300,869L455,887Z" fill="#fa7d60" stroke="#fa7d60" stroke-width="1.51"/><path d="M420,-263L284,-136L611,-101Z" fill="#ffbda5" stroke="#ffbda5" stroke-width="1.51"/><path d="M284,-136L274,355L566,180Z" fill="#fdaa8d" stroke="#fdaa8d" stroke-width="1.51"/><path d="M442,1046L178,1394L569,1359Z" fill="#d7654e" stroke="#d7654e" stroke-width="1.51"/><path d="M156,1112L178,1394L442,1046Z" fill="#de7057" stroke="#de7057" stroke-width="1.51"/><path d="M300,869L442,1046L455,887Z" fill="#f07156" stroke="#f07156" stroke-width="1.51"/><path d="M300,869L156,1112L442,1046Z" fill="#ec7359" stroke="#ec7359" stroke-width="1.51"/><path d="M161,-361L284,-136L420,-263Z" fill="#fecbb6" stroke="#fecbb6" stroke-width="1.51"/><path d="M-130,-9L-34,341L274,355Z" fill="#ffb59a" stroke="#ffb59a" stroke-width="1.51"/><path d="M-130,-9L274,355L284,-136Z" fill="#fdbca1" stroke="#fdbca1" stroke-width="1.51"/><path d="M218,566L-37,858L300,869Z" fill="#fc876b" stroke="#fc876b" stroke-width="1.51"/><path d="M-37,858L156,1112L300,869Z" fill="#f17f65" stroke="#f17f65" stroke-width="1.51"/><path d="M28,505L218,566L274,355Z" fill="#ff9c7d" stroke="#ff9c7d" stroke-width="1.51"/><path d="M161,-361L-130,-9L284,-136Z" fill="#fecfba" stroke="#fecfba" stroke-width="1.51"/><path d="M-34,341L28,505L274,355Z" fill="#ffa588" stroke="#ffa588" stroke-width="1.51"/><path d="M-90,-366L-130,-9L161,-361Z" fill="#fedaca" stroke="#fedaca" stroke-width="1.51"/><path d="M156,1112L-180,1174L178,1394Z" fill="#de7964" stroke="#de7964" stroke-width="1.51"/><path d="M28,505L-37,858L218,566Z" fill="#ff9578" stroke="#ff9578" stroke-width="1.51"/><path d="M-180,1174L-80,1475L178,1394Z" fill="#d47966" stroke="#d47966" stroke-width="1.51"/><path d="M-37,858L-180,1174L156,1112Z" fill="#ed826b" stroke="#ed826b" stroke-width="1.51"/><path d="M-295,559L-335,783L-37,858Z" fill="#ff9c83" stroke="#ff9c83" stroke-width="1.51"/><path d="M-34,341L-295,559L28,505Z" fill="#ffaa8f" stroke="#ffaa8f" stroke-width="1.51"/><path d="M-295,559L-37,858L28,505Z" fill="#ff9d83" stroke="#ff9d83" stroke-width="1.51"/><path d="M-296,-27L-393,324L-130,-9Z" fill="#ffccb8" stroke="#ffccb8" stroke-width="1.51"/><path d="M-296,-27L-130,-9L-90,-366Z" fill="#fed9c9" stroke="#fed9c9" stroke-width="1.51"/><path d="M-337,-368L-296,-27L-90,-366Z" fill="#fee3d7" stroke="#fee3d7" stroke-width="1.51"/><path d="M-335,783L-180,1174L-37,858Z" fill="#f68f79" stroke="#f68f79" stroke-width="1.51"/><path d="M-130,-9L-393,324L-34,341Z" fill="#ffbfa8" stroke="#ffbfa8" stroke-width="1.51"/><path d="M-393,324L-295,559L-34,341Z" fill="#ffb39a" stroke="#ffb39a" stroke-width="1.51"/><path d="M-180,1174L-433,1397L-80,1475Z" fill="#d58170" stroke="#d58170" stroke-width="1.51"/><path d="M-335,783L-434,1187L-180,1174Z" fill="#f08e79" stroke="#f08e79" stroke-width="1.51"/><path d="M-434,1187L-433,1397L-180,1174Z" fill="#e08976" stroke="#e08976" stroke-width="1.51"/><path d="M-337,-368L-393,324L-296,-27Z" fill="#ffd6c6" stroke="#ffd6c6" stroke-width="1.51"/><path d="M-393,324L-335,783L-295,559Z" fill="#ffac93" stroke="#ffac93" stroke-width="1.51"/><path d="M-393,324L-434,1187L-335,783Z" fill="#ff9f87" stroke="#ff9f87" stroke-width="1.51"/></svg>