<svg xmlns="http://www.w3.org/2000/svg" width="1920" height="1080"><path d="M795,1432L-80,1475L1020,1461Z" fill="#bd772a" stroke="#bd772a" stroke-width="1.51"/><path d="M-337,-368L-90,-366L1332,-452Z" fill="#ffecad" stroke="#ffecad" stroke-width="1.51"/><path d="M161,-361L1089,-388L1332,-452Z" fill="#ffd087" stroke="#ffd087" stroke-width="1.51"/><path d="M-90,-366L161,-361L1332,-452Z" fill="#ffe59e" stroke="#ffe59e" stroke-width="1.51"/><path d="M1910,-30L2026,261L2253,-144Z" fill="#cf8b49" stroke="#cf8b49" stroke-width="1.51"/><path d="M2041,436L2046,864L2259,489Z" fill="#c56114" stroke="#c56114" stroke-width="1.51"/><path d="M1899,1357L1478,1454L2274,1411Z" fill="#9c3705" stroke="#9c3705" stroke-width="1.51"/><path d="M2253,-144L2026,261L2320,353Z" fill="#c38039" stroke="#c38039" stroke-width="1.51"/><path d="M2259,489L2046,864L2323,749Z" fill="#bb5610" stroke="#bb5610" stroke-width="1.51"/><path d="M2046,864L2179,1081L2323,749Z" fill="#b44808" stroke="#b44808" stroke-width="1.51"/><path d="M2179,1081L2274,1411L2323,749Z" fill="#a23b05" stroke="#a23b05" stroke-width="1.51"/><path d="M2320,353L2259,489L2323,749Z" fill="#b96117" stroke="#b96117" stroke-width="1.51"/><path d="M2041,436L2259,489L2320,353Z" fill="#c16c1f" stroke="#c16c1f" stroke-width="1.51"/><path d="M2026,261L2041,436L2320,353Z" fill="#c77524" stroke="#c77524" stroke-width="1.51"/><path d="M1332,-452L1762,-261L2017,-330Z" fill="#eea46b" stroke="#eea46b" stroke-width="1.51"/><path d="M1901,1159L1899,1357L2179,1081Z" fill="#a93c04" stroke="#a93c04" stroke-width="1.51"/><path d="M2179,1081L1899,1357L2274,1411Z" fill="#983405" stroke="#983405" stroke-width="1.51"/><path d="M2187,-247L1910,-30L2253,-144Z" fill="#cd9056" stroke="#cd9056" stroke-width="1.51"/><path d="M2017,-330L1910,-30L2187,-247Z" fill="#d4955c" stroke="#d4955c" stroke-width="1.51"/><path d="M2046,864L1901,1159L2179,1081Z" fill="#b54204" stroke="#b54204" stroke-width="1.51"/><path d="M1614,1338L1478,1454L1899,1357Z" fill="#ac3f05" stroke="#ac3f05" stroke-width="1.51"/><path d="M1762,-261L1910,-30L2017,-330Z" fill="#de9a5d" stroke="#de9a5d" stroke-width="1.51"/><path d="M1910,-30L1723,241L2026,261Z" fill="#db8b3b" stroke="#db8b3b" stroke-width="1.51"/><path d="M2026,261L1794,442L2041,436Z" fill="#d47822" stroke="#d47822" stroke-width="1.51"/><path d="M1702,1094L1901,1159L2046,864Z" fill="#c04703" stroke="#c04703" stroke-width="1.51"/><path d="M1632,830L1702,1094L2046,864Z" fill="#cd5206" stroke="#cd5206" stroke-width="1.51"/><path d="M2041,436L1794,442L2046,864Z" fill="#d16714" stroke="#d16714" stroke-width="1.51"/><path d="M1794,442L1632,830L2046,864Z" fill="#d6610f" stroke="#d6610f" stroke-width="1.51"/><path d="M1723,241L1794,442L2026,261Z" fill="#dc8227" stroke="#dc8227" stroke-width="1.51"/><path d="M1614,1338L1899,1357L1901,1159Z" fill="#ae3e04" stroke="#ae3e04" stroke-width="1.51"/><path d="M1702,1094L1614,1338L1901,1159Z" fill="#bb4403" stroke="#bb4403" stroke-width="1.51"/><path d="M1762,-261L1612,-99L1910,-30Z" fill="#e89d59" stroke="#e89d59" stroke-width="1.51"/><path d="M1612,-99L1723,241L1910,-30Z" fill="#e6974b" stroke="#e6974b" stroke-width="1.51"/><path d="M1612,-99L1422,152L1723,241Z" fill="#ee9a47" stroke="#ee9a47" stroke-width="1.51"/><path d="M1723,241L1454,628L1794,442Z" fill="#e87e20" stroke="#e87e20" stroke-width="1.51"/><path d="M1454,628L1632,830L1794,442Z" fill="#e56f14" stroke="#e56f14" stroke-width="1.51"/><path d="M1422,152L1454,628L1723,241Z" fill="#ed8c2a" stroke="#ed8c2a" stroke-width="1.51"/><path d="M1332,-452L1612,-99L1762,-261Z" fill="#f3aa68" stroke="#f3aa68" stroke-width="1.51"/><path d="M1632,830L1379,1097L1702,1094Z" fill="#d45606" stroke="#d45606" stroke-width="1.51"/><path d="M1379,1097L1614,1338L1702,1094Z" fill="#c54d05" stroke="#c54d05" stroke-width="1.51"/><path d="M178,1394L-80,1475L795,1432Z" fill="#c28342" stroke="#c28342" stroke-width="1.51"/><path d="M1372,-5L1422,152L1612,-99Z" fill="#f4a453" stroke="#f4a453" stroke-width="1.51"/><path d="M1332,-452L1372,-5L1612,-99Z" fill="#f7ad65" stroke="#f7ad65" stroke-width="1.51"/><path d="M1454,628L1364,725L1632,830Z" fill="#e86e13" stroke="#e86e13" stroke-width="1.51"/><path d="M1364,725L1379,1097L1632,830Z" fill="#e1640e" stroke="#e1640e" stroke-width="1.51"/><path d="M1379,1097L1478,1454L1614,1338Z" fill="#bc4b07" stroke="#bc4b07" stroke-width="1.51"/><path d="M161,-361L420,-263L919,-304Z" fill="#ffe295" stroke="#ffe295" stroke-width="1.51"/><path d="M161,-361L919,-304L1089,-388Z" fill="#ffd88a" stroke="#ffd88a" stroke-width="1.51"/><path d="M1332,-452L1089,-388L1372,-5Z" fill="#feb871" stroke="#feb871" stroke-width="1.51"/><path d="M1089,-388L1054,-61L1372,-5Z" fill="#ffba68" stroke="#ffba68" stroke-width="1.51"/><path d="M1422,152L1132,273L1454,628Z" fill="#f6952d" stroke="#f6952d" stroke-width="1.51"/><path d="M1132,273L1095,504L1454,628Z" fill="#f89127" stroke="#f89127" stroke-width="1.51"/><path d="M1379,1097L1020,1461L1478,1454Z" fill="#c0530c" stroke="#c0530c" stroke-width="1.51"/><path d="M998,1161L1020,1461L1379,1097Z" fill="#ce6011" stroke="#ce6011" stroke-width="1.51"/><path d="M1364,725L1018,867L1379,1097Z" fill="#e86e13" stroke="#e86e13" stroke-width="1.51"/><path d="M1095,504L1364,725L1454,628Z" fill="#f3801c" stroke="#f3801c" stroke-width="1.51"/><path d="M1372,-5L1132,273L1422,152Z" fill="#f9a547" stroke="#f9a547" stroke-width="1.51"/><path d="M1054,-61L1132,273L1372,-5Z" fill="#fcb054" stroke="#fcb054" stroke-width="1.51"/><path d="M1018,867L998,1161L1379,1097Z" fill="#e26a11" stroke="#e26a11" stroke-width="1.51"/><path d="M1095,504L1018,867L1364,725Z" fill="#f4821d" stroke="#f4821d" stroke-width="1.51"/><path d="M569,1359L178,1394L795,1432Z" fill="#c57c30" stroke="#c57c30" stroke-width="1.51"/><path d="M919,-304L1054,-61L1089,-388Z" fill="#ffc575" stroke="#ffc575" stroke-width="1.51"/><path d="M901,856L1018,867L1095,504Z" fill="#f68720" stroke="#f68720" stroke-width="1.51"/><path d="M805,490L901,856L1095,504Z" fill="#fc9528" stroke="#fc9528" stroke-width="1.51"/><path d="M1054,-61L899,-47L1132,273Z" fill="#ffb959" stroke="#ffb959" stroke-width="1.51"/><path d="M899,-47L741,325L1132,273Z" fill="#ffb74c" stroke="#ffb74c" stroke-width="1.51"/><path d="M805,490L1095,504L1132,273Z" fill="#fea031" stroke="#fea031" stroke-width="1.51"/><path d="M741,325L805,490L1132,273Z" fill="#ffac3a" stroke="#ffac3a" stroke-width="1.51"/><path d="M901,856L998,1161L1018,867Z" fill="#eb7919" stroke="#eb7919" stroke-width="1.51"/><path d="M998,1161L795,1432L1020,1461Z" fill="#c76617" stroke="#c76617" stroke-width="1.51"/><path d="M919,-304L899,-47L1054,-61Z" fill="#ffc46d" stroke="#ffc46d" stroke-width="1.51"/><path d="M901,856L759,1079L998,1161Z" fill="#e7791b" stroke="#e7791b" stroke-width="1.51"/><path d="M759,1079L795,1432L998,1161Z" fill="#d5711c" stroke="#d5711c" stroke-width="1.51"/><path d="M566,180L741,325L899,-47Z" fill="#ffc35a" stroke="#ffc35a" stroke-width="1.51"/><path d="M611,-101L566,180L899,-47Z" fill="#ffce6d" stroke="#ffce6d" stroke-width="1.51"/><path d="M805,490L623,549L901,856Z" fill="#fc9d30" stroke="#fc9d30" stroke-width="1.51"/><path d="M611,-101L899,-47L919,-304Z" fill="#ffcd75" stroke="#ffcd75" stroke-width="1.51"/><path d="M420,-263L611,-101L919,-304Z" fill="#ffd983" stroke="#ffd983" stroke-width="1.51"/><path d="M759,1079L569,1359L795,1432Z" fill="#cf7723" stroke="#cf7723" stroke-width="1.51"/><path d="M455,887L759,1079L901,856Z" fill="#ee8b29" stroke="#ee8b29" stroke-width="1.51"/><path d="M623,549L455,887L901,856Z" fill="#f79a30" stroke="#f79a30" stroke-width="1.51"/><path d="M741,325L623,549L805,490Z" fill="#ffae3c" stroke="#ffae3c" stroke-width="1.51"/><path d="M442,1046L569,1359L759,1079Z" fill="#dc842a" stroke="#dc842a" stroke-width="1.51"/><path d="M455,887L442,1046L759,1079Z" fill="#ea8f30" stroke="#ea8f30" stroke-width="1.51"/><path d="M566,180L623,549L741,325Z" fill="#febc48" stroke="#febc48" stroke-width="1.51"/><path d="M284,-136L566,180L611,-101Z" fill="#ffd97d" stroke="#ffd97d" stroke-width="1.51"/><path d="M218,566L455,887L623,549Z" fill="#fcac47" stroke="#fcac47" stroke-width="1.51"/><path d="M274,355L218,566L623,549Z" fill="#ffbc55" stroke="#ffbc55" stroke-width="1.51"/><path d="M566,180L274,355L623,549Z" fill="#ffc253" stroke="#ffc253" stroke-width="1.51"/><path d="M218,566L300,869L455,887Z" fill="#faa84d" stroke="#faa84d" stroke-width="1.51"/><path d="M420,-263L284,-136L611,-101Z" fill="#ffe18e" stroke="#ffe18e" stroke-width="1.51"/><path d="M284,-136L274,355L566,180Z" fill="#ffd677" stroke="#ffd677" stroke-width="1.51"/><path d="M442,1046L178,1394L569,1359Z" fill="#d3863b" stroke="#d3863b" stroke-width="1.51"/><path d="M156,1112L178,1394L442,1046Z" fill="#dc9148" stroke="#dc9148" stroke-width="1.51"/><path d="M300,869L442,1046L455,887Z" fill="#f09a41" stroke="#f09a41" stroke-width="1.51"/><path d="M300,869L156,1112L442,1046Z" fill="#ed9a48" stroke="#ed9a48" stroke-width="1.51"/><path d="M161,-361L284,-136L420,-263Z" fill="#ffeaa3" stroke="#ffeaa3" stroke-width="1.51"/><path d="M-130,-9L-34,341L274,355Z" fill="#ffdb83" stroke="#ffdb83" stroke-width="1.51"/><path d="M-130,-9L274,355L284,-136Z" fill="#ffe290" stroke="#ffe290" stroke-width="1.51"/><path d="M218,566L-37,858L300,869Z" fill="#faaf5a" stroke="#faaf5a" stroke-width="1.51"/><path d="M-37,858L156,1112L300,869Z" fill="#f2a356" stroke="#f2a356" stroke-width="1.51"/><path d="M28,505L218,566L274,355Z" fill="#ffc567" stroke="#ffc567" stroke-width="1.51"/><path d="M161,-361L-130,-9L284,-136Z" fill="#ffeda8" stroke="#ffeda8" stroke-width="1.51"/><path d="M-34,341L28,505L274,355Z" fill="#ffcd71" stroke="#ffcd71" stroke-width="1.51"/><path d="M-90,-366L-130,-9L161,-361Z" fill="#fff3b5" stroke="#fff3b5" stroke-width="1.51"/><path d="M156,1112L-180,1174L178,1394Z" fill="#da9454" stroke="#da9454" stroke-width="1.51"/><path d="M28,505L-37,858L218,566Z" fill="#ffba65" stroke="#ffba65" stroke-width="1.51"/><path d="M-180,1174L-80,1475L178,1394Z" fill="#cd9157" stroke="#cd9157" stroke-width="1.51"/><path d="M-37,858L-180,1174L156,1112Z" fill="#eda05b" stroke="#eda05b" stroke-width="1.51"/><path d="M-295,559L-335,783L-37,858Z" fill="#ffbb72" stroke="#ffbb72" stroke-width="1.51"/><path d="M-34,341L-295,559L28,505Z" fill="#ffcc78" stroke="#ffcc78" stroke-width="1.51"/><path d="M-295,559L-37,858L28,505Z" fill="#ffbf6f" stroke="#ffbf6f" stroke-width="1.51"/><path d="M-296,-27L-393,324L-130,-9Z" fill="#ffeaa5" stroke="#ffeaa5" stroke-width="1.51"/><path d="M-296,-27L-130,-9L-90,-366Z" fill="#fff3b5" stroke="#fff3b5" stroke-width="1.51"/><path d="M-337,-368L-296,-27L-90,-366Z" fill="#fff8c3" stroke="#fff8c3" stroke-width="1.51"/><path d="M-335,783L-180,1174L-37,858Z" fill="#f5ac68" stroke="#f5ac68" stroke-width="1.51"/><path d="M-130,-9L-393,324L-34,341Z" fill="#ffe291" stroke="#ffe291" stroke-width="1.51"/><path d="M-393,324L-295,559L-34,341Z" fill="#ffd484" stroke="#ffd484" stroke-width="1.51"/><path d="M-180,1174L-433,1397L-80,1475Z" fill="#cf9462" stroke="#cf9462" stroke-width="1.51"/><path d="M-335,783L-434,1187L-180,1174Z" fill="#efa56c" stroke="#efa56c" stroke-width="1.51"/><path d="M-434,1187L-433,1397L-180,1174Z" fill="#da9a6a" stroke="#da9a6a" stroke-width="1.51"/><path d="M-337,-368L-393,324L-296,-27Z" fill="#fff1b6" stroke="#fff1b6" stroke-width="1.51"/><path d="M-393,324L-335,783L-295,559Z" fill="#ffc980" stroke="#ffc980" stroke-width="1.51"/><path d="M-393,324L-434,1187L-335,783Z" fill="#ffb97a" stroke="#ffb97a" stroke-width="1.51"/></svg>