<?xml version="1.0" encoding="utf-8"?>
<!-- Generator: Adobe Illustrator 16.0.0, SVG Export Plug-In . SVG Version: 6.00 Build 0)  -->
<!DOCTYPE svg PUBLIC "-//W3C//DTD SVG 1.1//EN" "http://www.w3.org/Graphics/SVG/1.1/DTD/svg11.dtd">
<svg version="1.1" id="Layer_1" xmlns="http://www.w3.org/2000/svg" xmlns:xlink="http://www.w3.org/1999/xlink" x="0px" y="0px"
	 width="40px" height="40px" viewBox="0 0 40 40" enable-background="new 0 0 40 40" xml:space="preserve">
<path fill="#FED19E" d="M19.969,0.125c-10.994,0-19.906,8.912-19.906,19.906c0,10.993,8.912,19.907,19.906,19.907
	c10.993,0,19.906-8.914,19.906-19.907C39.875,9.037,30.962,0.125,19.969,0.125 M19.969,38.128c-9.995,0-18.096-8.103-18.096-18.097
	c0-9.993,8.102-18.096,18.096-18.096c9.994,0,18.097,8.103,18.097,18.096C38.064,30.025,29.963,38.128,19.969,38.128"/>
<g>
	<path fill-rule="evenodd" clip-rule="evenodd" fill="#FED19E" d="M30.016,22.692c-0.272,0-0.517,0-0.816,0
		c0.135-0.739,0.266-1.452,0.396-2.165c0.092-0.489,0.206-0.977,0.268-1.471c0.054-0.424,0.039-0.868-0.404-1.108
		c-0.451-0.245-0.853-0.05-1.2,0.245c-0.533,0.45-0.829,1.049-0.968,1.721c-0.149,0.73-0.281,1.466-0.401,2.203
		c-0.106,0.647-0.165,0.692-0.928,0.521c0.277-1.533,0.556-3.071,0.85-4.697c-0.444,0-0.826-0.021-1.204,0.016
		c-0.086,0.009-0.198,0.21-0.223,0.337c-0.271,1.452-0.527,2.907-0.793,4.391c-0.285,0-0.555,0-0.863,0
		c0.276-1.581,0.545-3.123,0.82-4.696c-0.228-0.037-0.406-0.066-0.622-0.101c0.063-0.368,0.001-0.774,0.582-0.758
		c0.088,0.002,0.209-0.22,0.271-0.358c0.222-0.492,0.354-1.039,0.65-1.479c0.457-0.683,1.334-0.876,2.171-0.569
		c-0.058,0.197-0.117,0.399-0.175,0.596c-1.238,0.025-1.71,0.492-1.787,1.833c0.447,0,0.893,0,1.337,0
		c0.703-0.001,0.708,0.006,0.632,0.704c-0.01,0.087-0.021,0.176-0.047,0.391c0.515-0.598,0.984-1.061,1.715-1.112
		c0.77-0.053,1.031,0.114,1.448,0.957c0.456-0.289,0.882-0.688,1.385-0.854c1.161-0.384,1.946,0.219,1.867,1.428
		c-0.057,0.863-0.27,1.719-0.413,2.576c-0.047,0.277-0.097,0.553-0.146,0.828c-0.122,0.68-0.198,0.729-0.963,0.577
		c0.112-0.618,0.23-1.238,0.335-1.86c0.109-0.644,0.221-1.288,0.3-1.935c0.045-0.372-0.037-0.722-0.42-0.912
		c-0.381-0.189-0.737-0.085-1.057,0.139c-0.521,0.365-0.847,0.881-0.979,1.49C30.406,20.588,30.225,21.614,30.016,22.692z"/>
	<path fill-rule="evenodd" clip-rule="evenodd" fill="#FED19E" d="M17.884,20.478c-0.549,0.285-0.649,0.762-0.723,1.269
		c-0.15,1.031-0.159,1.031-1.211,1.03c-0.183,0-0.366,0-0.613,0c0.141-0.747,0.267-1.431,0.397-2.112
		c0.373-1.958,0.753-3.914,1.112-5.875c0.053-0.287,0.15-0.407,0.447-0.393c0.402,0.02,0.805,0.005,1.277,0.005
		c-0.319,1.641-0.626,3.221-0.96,4.938c0.597-0.713,1.095-1.34,1.634-1.932c0.144-0.157,0.404-0.269,0.621-0.287
		c0.507-0.042,1.02-0.014,1.573-0.014c-0.806,0.782-1.568,1.523-2.338,2.271c0.555,1.17,1.063,2.244,1.607,3.394
		c-0.608,0-1.136,0.02-1.658-0.016c-0.116-0.007-0.26-0.188-0.321-0.323C18.438,21.797,18.172,21.15,17.884,20.478z"/>
	<path fill-rule="evenodd" clip-rule="evenodd" fill="#FED19E" d="M10.603,22.755c-0.51,0-0.972,0-1.495,0
		c0.014-0.293,0.027-0.563,0.044-0.931c-0.136,0.168-0.222,0.281-0.314,0.389c-0.538,0.62-1.365,0.854-2.069,0.583
		c-0.642-0.246-1.022-0.902-1.058-1.72c-0.115-2.549,1.905-4.799,5.411-3.868c0.306,0.081,0.22,0.271,0.188,0.472
		c-0.221,1.398-0.44,2.796-0.649,4.196C10.62,22.15,10.623,22.431,10.603,22.755z M9.605,18.305
		c-0.349,0.019-0.601-0.011-0.826,0.055c-0.953,0.275-1.689,2-1.245,2.89C7.7,21.58,8.003,21.746,8.29,21.495
		c0.314-0.274,0.625-0.627,0.766-1.009C9.299,19.824,9.41,19.114,9.605,18.305z"/>
	<path fill-rule="evenodd" clip-rule="evenodd" fill="#FED19E" d="M11.032,22.475c0.148-0.441,0.276-0.819,0.39-1.159
		c0.494,0.107,0.94,0.225,1.394,0.295c0.287,0.045,0.586-0.007,0.676-0.351c0.087-0.338-0.152-0.511-0.403-0.659
		c-0.187-0.112-0.382-0.212-0.563-0.333c-1.097-0.723-1.088-2.164,0.033-2.854c0.853-0.525,1.775-0.511,2.703-0.227
		c0.096,0.029,0.226,0.225,0.205,0.313c-0.075,0.327-0.206,0.642-0.315,0.957c-0.376-0.07-0.714-0.192-1.044-0.173
		c-0.238,0.014-0.465,0.217-0.697,0.335c0.133,0.206,0.235,0.442,0.408,0.605c0.177,0.165,0.433,0.243,0.637,0.383
		c1.096,0.751,1.062,2.229-0.102,2.886C13.284,23.099,12.18,22.998,11.032,22.475z"/>
	<path fill-rule="evenodd" clip-rule="evenodd" fill="#FED19E" d="M22.938,21.961c0.003,0.42-0.341,0.756-0.771,0.754
		c-0.385-0.002-0.684-0.295-0.684-0.67c0-0.406,0.367-0.768,0.775-0.766C22.627,21.281,22.936,21.59,22.938,21.961z"/>
</g>
</svg>
