<?xml version="1.0" encoding="utf-8"?>
<!-- Generator: Adobe Illustrator 16.0.0, SVG Export Plug-In . SVG Version: 6.00 Build 0)  -->
<!DOCTYPE svg PUBLIC "-//W3C//DTD SVG 1.1//EN" "http://www.w3.org/Graphics/SVG/1.1/DTD/svg11.dtd">
<svg version="1.1" id="Layer_1" xmlns="http://www.w3.org/2000/svg" xmlns:xlink="http://www.w3.org/1999/xlink" x="0px" y="0px"
	 width="40px" height="40px" viewBox="0 0 40 40" enable-background="new 0 0 40 40" xml:space="preserve">
<path fill="#FED19E" d="M19.969,0.125c-10.994,0-19.906,8.912-19.906,19.906c0,10.993,8.912,19.907,19.906,19.907
	c10.993,0,19.906-8.914,19.906-19.907C39.875,9.037,30.962,0.125,19.969,0.125 M19.969,38.128c-9.995,0-18.096-8.103-18.096-18.097
	c0-9.993,8.102-18.096,18.096-18.096c9.994,0,18.097,8.103,18.097,18.096C38.064,30.025,29.963,38.128,19.969,38.128"/>
<g>
	<path fill-rule="evenodd" clip-rule="evenodd" fill="#FED19E" d="M9.274,12.723c0.082,0,0.141,0,0.2,0c2.187,0,4.374,0,6.562,0
		c0.601,0,1.194,0.063,1.775,0.221c0.35,0.096,0.685,0.23,0.998,0.415c0.692,0.409,1.172,0.992,1.422,1.755
		c0.257,0.787,0.27,1.585,0.052,2.382c-0.165,0.605-0.508,1.092-1.025,1.45c-0.131,0.091-0.271,0.17-0.406,0.255
		c-0.04,0.024-0.078,0.049-0.132,0.083c0.079,0.036,0.142,0.064,0.204,0.091c0.363,0.156,0.692,0.363,0.977,0.638
		c0.425,0.41,0.696,0.91,0.844,1.479c0.132,0.51,0.165,1.027,0.116,1.553c-0.049,0.537-0.188,1.048-0.438,1.526
		c-0.227,0.435-0.509,0.826-0.871,1.16c-0.554,0.513-1.207,0.828-1.945,0.972c-0.63,0.123-1.266,0.182-1.908,0.181
		c-2.068-0.001-4.137,0-6.206,0c-0.065,0-0.13,0-0.202,0c-0.008-0.042-0.018-0.075-0.02-0.108c-0.003-0.053-0.001-0.107-0.001-0.16
		c0-4.541,0-9.08,0-13.621C9.27,12.912,9.272,12.83,9.274,12.723z M12.547,24.416c0.048,0.004,0.088,0.011,0.127,0.011
		c1.007,0,2.014,0.001,3.02-0.003c0.297-0.001,0.591-0.033,0.88-0.107c0.646-0.163,1.071-0.559,1.24-1.211
		c0.094-0.365,0.115-0.737,0.046-1.109c-0.089-0.485-0.351-0.846-0.794-1.07c-0.191-0.098-0.395-0.157-0.605-0.197
		c-0.31-0.06-0.622-0.076-0.937-0.076c-0.758,0.002-1.516,0.001-2.274,0.001c-0.195,0-0.391-0.001-0.586,0.001
		c-0.039,0-0.078,0.011-0.127,0.019c0,1.224,0,2.437,0,3.649C12.537,24.351,12.542,24.379,12.547,24.416z M12.543,15.181
		c-0.002,0.085-0.006,0.15-0.006,0.214c0,0.858,0,1.717,0,2.576c0,0.077-0.002,0.154,0.001,0.23
		c0.001,0.034,0.014,0.066,0.023,0.106c0.073,0,0.138,0,0.202,0c0.889,0,1.777,0.002,2.665-0.002c0.213,0,0.426-0.011,0.638-0.034
		c0.308-0.034,0.603-0.12,0.878-0.266c0.318-0.167,0.515-0.428,0.602-0.774c0.077-0.303,0.085-0.61,0.026-0.916
		c-0.079-0.409-0.292-0.722-0.683-0.892c-0.102-0.044-0.212-0.074-0.321-0.1c-0.417-0.101-0.84-0.141-1.268-0.142
		c-0.865-0.002-1.729,0-2.594-0.001C12.66,15.181,12.612,15.181,12.543,15.181z"/>
	<path fill-rule="evenodd" clip-rule="evenodd" fill="#FED19E" d="M32.021,22.118c-1.244,0-2.47,0-3.696,0c-1.219,0-2.438,0-3.664,0
		c-0.003,0.054-0.008,0.089-0.006,0.122c0.016,0.334,0.077,0.659,0.196,0.973c0.242,0.64,0.702,1.06,1.343,1.277
		c0.546,0.185,1.105,0.204,1.666,0.07c0.485-0.116,0.874-0.385,1.155-0.802c0.06-0.088,0.114-0.179,0.174-0.272
		c0.178-0.02,0.354-0.007,0.531-0.009c0.178-0.003,0.355-0.001,0.533-0.001c0.185,0,0.367,0,0.552,0c0.178,0,0.355,0,0.533,0
		c0.177,0.001,0.354-0.002,0.523,0.002c0.03,0.076,0.011,0.135-0.001,0.191c-0.068,0.329-0.199,0.633-0.381,0.914
		c-0.634,0.976-1.492,1.656-2.621,1.979c-0.632,0.182-1.278,0.242-1.934,0.228c-0.621-0.015-1.225-0.122-1.809-0.335
		c-0.602-0.219-1.146-0.537-1.639-0.945c-0.558-0.464-0.928-1.056-1.164-1.734c-0.153-0.438-0.242-0.891-0.292-1.352
		c-0.057-0.526-0.063-1.053-0.027-1.58c0.042-0.623,0.149-1.235,0.375-1.821c0.541-1.412,1.552-2.324,2.987-2.771
		c0.467-0.146,0.948-0.208,1.437-0.22c0.541-0.014,1.077,0.024,1.606,0.145c0.8,0.183,1.525,0.514,2.121,1.092
		c0.487,0.473,0.854,1.028,1.106,1.659c0.203,0.51,0.317,1.04,0.363,1.587c0.04,0.479,0.038,0.959,0.039,1.438
		C32.029,22.002,32.024,22.048,32.021,22.118z M24.73,20.354c0.02,0.006,0.036,0.014,0.054,0.014
		c1.475,0.002,2.95,0.002,4.426,0.001c0.017,0,0.033-0.009,0.058-0.017c0.001-0.027,0.008-0.057,0.004-0.084
		c-0.021-0.135-0.035-0.271-0.066-0.402c-0.192-0.812-0.698-1.326-1.494-1.557c-0.346-0.101-0.699-0.112-1.057-0.075
		c-0.676,0.07-1.197,0.384-1.552,0.967c-0.192,0.317-0.306,0.665-0.371,1.029C24.725,20.27,24.73,20.312,24.73,20.354z"/>
	<path fill-rule="evenodd" clip-rule="evenodd" fill="#FED19E" d="M24.136,14.703c-0.02-0.215-0.016-1.242,0.006-1.375
		c0.015-0.005,0.031-0.017,0.047-0.017c1.849-0.001,3.698-0.002,5.547-0.002c0.022,0,0.045,0.008,0.074,0.014
		c0.005,0.031,0.014,0.059,0.016,0.086c0.015,0.332,0.004,1.162-0.017,1.293c-0.005,0.004-0.009,0.009-0.014,0.012
		c-0.005,0.002-0.011,0.005-0.017,0.005c-1.818,0.002-3.639,0.004-5.457,0.005c-0.047,0-0.095-0.001-0.143-0.004
		C24.168,14.718,24.158,14.711,24.136,14.703z"/>
</g>
</svg>
