<?xml version="1.0" encoding="utf-8"?>
<!-- Generator: Adobe Illustrator 16.0.0, SVG Export Plug-In . SVG Version: 6.00 Build 0)  -->
<!DOCTYPE svg PUBLIC "-//W3C//DTD SVG 1.1//EN" "http://www.w3.org/Graphics/SVG/1.1/DTD/svg11.dtd">
<svg version="1.1" id="Layer_1" xmlns="http://www.w3.org/2000/svg" xmlns:xlink="http://www.w3.org/1999/xlink" x="0px" y="0px"
	 width="40px" height="40px" viewBox="0 0 40 40" enable-background="new 0 0 40 40" xml:space="preserve">
<path fill="#FED19E" d="M19.969,0.125c-10.994,0-19.906,8.912-19.906,19.906c0,10.993,8.912,19.906,19.906,19.906
	c10.993,0,19.906-8.913,19.906-19.906C39.875,9.037,30.962,0.125,19.969,0.125 M19.969,38.128c-9.995,0-18.096-8.102-18.096-18.097
	c0-9.993,8.102-18.096,18.096-18.096c9.994,0,18.097,8.103,18.097,18.096C38.065,30.026,29.963,38.128,19.969,38.128 M21.769,15.733
	c0-0.731,0.073-1.124,1.201-1.124h1.504v-2.723h-2.408c-2.892,0-3.911,1.363-3.911,3.653v1.769h-1.803v2.724h1.803v8.146h3.608
	v-8.146h2.41l0.319-2.724h-2.729L21.769,15.733z"/>
</svg>
