<?xml version="1.0" encoding="utf-8"?>
<!-- Generator: Adobe Illustrator 16.0.0, SVG Export Plug-In . SVG Version: 6.00 Build 0)  -->
<!DOCTYPE svg PUBLIC "-//W3C//DTD SVG 1.1//EN" "http://www.w3.org/Graphics/SVG/1.1/DTD/svg11.dtd">
<svg version="1.1" id="Layer_1" xmlns="http://www.w3.org/2000/svg" xmlns:xlink="http://www.w3.org/1999/xlink" x="0px" y="0px"
	 width="40px" height="40px" viewBox="0 0 40 40" enable-background="new 0 0 40 40" xml:space="preserve">
<path fill="#FED19E" d="M19.969,0.125c-10.994,0-19.906,8.912-19.906,19.906c0,10.993,8.912,19.907,19.906,19.907
	c10.993,0,19.906-8.914,19.906-19.907C39.875,9.037,30.962,0.125,19.969,0.125 M19.969,38.128c-9.995,0-18.096-8.103-18.096-18.097
	c0-9.993,8.102-18.096,18.096-18.096c9.994,0,18.097,8.103,18.097,18.096C38.064,30.025,29.963,38.128,19.969,38.128"/>
<g>
	<path fill-rule="evenodd" clip-rule="evenodd" fill="#FED19E" d="M29.292,20.178c0,2.338-0.001,4.676,0,7.015
		c0.001,0.295-0.045,0.58-0.167,0.847c-0.319,0.7-0.858,1.124-1.621,1.254c-0.106,0.02-0.218,0.024-0.326,0.024
		c-1.195,0.002-2.391,0.001-3.586,0.001c-3.485,0-6.971,0-10.457,0.001c-0.301,0-0.59-0.05-0.86-0.175
		c-0.696-0.32-1.11-0.862-1.244-1.614c-0.021-0.117-0.024-0.237-0.025-0.355c-0.004-0.253-0.002-0.506-0.002-0.759
		c0-4.395,0-8.79,0-13.185c0-0.284,0.029-0.563,0.136-0.826c0.31-0.763,0.871-1.219,1.687-1.351
		c0.107-0.018,0.218-0.022,0.327-0.022c4.667-0.001,9.333-0.001,14.001-0.002c0.552,0,1.038,0.176,1.445,0.548
		c0.443,0.405,0.686,0.91,0.689,1.514c0.008,0.771,0.003,1.543,0.003,2.314C29.292,16.997,29.292,18.587,29.292,20.178z
		 M13.119,18.781c-0.001,0.064-0.004,0.121-0.004,0.177c0,2.48,0,4.962,0,7.444c0,0.041,0,0.085,0.001,0.127
		c0.022,0.383,0.313,0.668,0.694,0.677c0.043,0.002,0.086,0,0.129,0c4.143,0,8.285,0,12.43,0c0.048,0,0.095,0.002,0.143-0.001
		c0.34-0.012,0.616-0.259,0.664-0.597c0.009-0.074,0.012-0.15,0.012-0.228c0-2.471,0-4.942,0-7.414c0-0.043,0-0.086-0.003-0.128
		c0-0.018-0.007-0.037-0.012-0.058c-0.13-0.021-0.258-0.007-0.385-0.01c-0.134-0.003-0.267,0-0.4,0c-0.129,0-0.258-0.002-0.387,0
		c-0.13,0.003-0.262-0.013-0.401,0.013c0.288,1.163,0.231,2.301-0.198,3.414s-1.146,2.001-2.136,2.665
		c-1.802,1.204-4.139,1.252-5.98,0.155c-0.95-0.564-1.679-1.34-2.168-2.33c-0.619-1.247-0.748-2.552-0.416-3.903
		C14.588,18.768,13.293,18.764,13.119,18.781z M16.632,20.168c0.007,2.007,1.632,3.514,3.498,3.524
		c1.924,0.011,3.534-1.549,3.538-3.509c0.004-1.929-1.554-3.512-3.495-3.525C18.257,16.646,16.646,18.182,16.632,20.168z
		 M25.437,13.143c-0.352,0-0.704,0-1.056,0c-0.01,0-0.019,0-0.028,0.001c-0.35,0.01-0.636,0.27-0.677,0.616
		c-0.006,0.056-0.008,0.113-0.008,0.171c0,0.647,0,1.294,0,1.941c0,0.057,0,0.115,0.009,0.171c0.043,0.297,0.213,0.489,0.494,0.586
		c0.082,0.029,0.167,0.03,0.255,0.03c0.665,0,1.331,0,1.998,0c0.033,0,0.066,0.001,0.1-0.001c0.198-0.015,0.366-0.096,0.496-0.249
		c0.123-0.146,0.168-0.315,0.168-0.503c-0.002-0.671,0-1.342,0-2.012c0-0.052-0.005-0.105-0.014-0.157
		c-0.048-0.284-0.214-0.469-0.484-0.563c-0.077-0.027-0.156-0.032-0.239-0.032C26.112,13.144,25.774,13.143,25.437,13.143z"/>
</g>
</svg>
