<?xml version="1.0" encoding="utf-8"?>
<!-- Generator: Adobe Illustrator 16.0.0, SVG Export Plug-In . SVG Version: 6.00 Build 0)  -->
<!DOCTYPE svg PUBLIC "-//W3C//DTD SVG 1.1//EN" "http://www.w3.org/Graphics/SVG/1.1/DTD/svg11.dtd">
<svg version="1.1" id="Layer_1" xmlns="http://www.w3.org/2000/svg" xmlns:xlink="http://www.w3.org/1999/xlink" x="0px" y="0px"
	 width="40px" height="40px" viewBox="0 0 40 40" enable-background="new 0 0 40 40" xml:space="preserve">
<path fill="#FED19E" d="M19.969,0.125c-10.994,0-19.906,8.912-19.906,19.906c0,10.993,8.912,19.907,19.906,19.907
	c10.993,0,19.906-8.914,19.906-19.907C39.875,9.037,30.962,0.125,19.969,0.125 M19.969,38.128c-9.995,0-18.096-8.103-18.096-18.097
	c0-9.993,8.102-18.096,18.096-18.096c9.994,0,18.097,8.103,18.097,18.096C38.064,30.025,29.963,38.128,19.969,38.128"/>
<path fill="#FED19E" d="M33.977,17.577c-0.411-4.26-3.175-7.672-8.177-9.502C18.1,5.255,7.428,8.432,6.242,17.732
	c-0.831,6.517,4.025,10.403,11.271,11.513c1.334,0.113,1.858,0.828,1.568,2.144c-0.412,1.335-0.396,2.03,0.045,2.099
	c0.903,0.146,4.292-2.045,10.166-6.585C32.603,24.11,34.306,20.99,33.977,17.577z M14.491,21.517
	c-0.118,0.104-0.292,0.156-0.52,0.156h-3.36c-0.303,0-0.521-0.067-0.654-0.201c-0.133-0.135-0.199-0.352-0.199-0.651V15.53
	c0-0.281,0.063-0.492,0.19-0.632c0.126-0.141,0.292-0.211,0.499-0.211c0.209,0,0.378,0.069,0.508,0.208
	c0.129,0.139,0.194,0.351,0.194,0.635v5h2.821c0.225,0,0.397,0.055,0.518,0.164s0.181,0.247,0.181,0.413
	C14.67,21.274,14.61,21.411,14.491,21.517z M17.031,20.942c0,0.284-0.064,0.496-0.194,0.637c-0.129,0.141-0.299,0.211-0.508,0.211
	c-0.2,0-0.365-0.071-0.495-0.213c-0.129-0.143-0.194-0.354-0.194-0.635V15.53c0-0.281,0.064-0.492,0.192-0.632
	s0.294-0.211,0.497-0.211c0.209,0,0.379,0.069,0.508,0.208c0.13,0.139,0.194,0.351,0.194,0.635V20.942z M24.355,20.886
	c0,0.604-0.25,0.904-0.75,0.904c-0.125,0-0.237-0.018-0.338-0.054c-0.1-0.036-0.193-0.093-0.28-0.171
	c-0.088-0.078-0.169-0.17-0.244-0.274s-0.15-0.212-0.225-0.321l-2.61-4.001v4.024c0,0.263-0.061,0.461-0.183,0.596
	c-0.122,0.134-0.278,0.201-0.469,0.201c-0.197,0-0.354-0.067-0.474-0.204c-0.118-0.136-0.178-0.333-0.178-0.593v-5.299
	c0-0.225,0.025-0.401,0.075-0.529c0.059-0.141,0.157-0.255,0.295-0.345c0.138-0.089,0.286-0.133,0.445-0.133
	c0.125,0,0.231,0.021,0.321,0.061c0.089,0.041,0.167,0.095,0.234,0.164c0.066,0.068,0.136,0.158,0.206,0.267
	s0.143,0.223,0.218,0.342l2.676,4.049v-4.086c0-0.265,0.057-0.464,0.171-0.597s0.268-0.199,0.462-0.199
	c0.199,0,0.357,0.066,0.473,0.199s0.174,0.332,0.174,0.597V20.886z M31.008,21.521c-0.111,0.102-0.276,0.152-0.495,0.152h-3.781
	c-0.303,0-0.521-0.067-0.653-0.201c-0.133-0.135-0.199-0.352-0.199-0.651v-5.164c0-0.2,0.029-0.363,0.089-0.489
	c0.06-0.127,0.152-0.219,0.278-0.277c0.127-0.058,0.289-0.086,0.485-0.086h3.674c0.222,0,0.387,0.049,0.494,0.147
	c0.108,0.099,0.162,0.228,0.162,0.387c0,0.163-0.054,0.293-0.162,0.391c-0.107,0.099-0.272,0.148-0.494,0.148h-3.135v1.687h2.887
	c0.212,0,0.371,0.048,0.476,0.143s0.157,0.221,0.157,0.377s-0.052,0.283-0.155,0.382c-0.103,0.098-0.262,0.147-0.478,0.147h-2.887
	v1.954h3.242c0.219,0,0.384,0.051,0.495,0.152c0.11,0.102,0.166,0.236,0.166,0.405C31.174,21.287,31.118,21.419,31.008,21.521z"/>
</svg>
