<?xml version="1.0" encoding="utf-8"?>
<!-- Generator: Adobe Illustrator 16.0.0, SVG Export Plug-In . SVG Version: 6.00 Build 0)  -->
<!DOCTYPE svg PUBLIC "-//W3C//DTD SVG 1.1//EN" "http://www.w3.org/Graphics/SVG/1.1/DTD/svg11.dtd">
<svg version="1.1" id="Layer_1" xmlns="http://www.w3.org/2000/svg" xmlns:xlink="http://www.w3.org/1999/xlink" x="0px" y="0px"
	 width="40px" height="40px" viewBox="0 0 40 40" enable-background="new 0 0 40 40" xml:space="preserve">
<path fill="#FED19E" d="M29.543,13.018c-0.721,0.421-1.521,0.727-2.37,0.893c-0.683-0.715-1.653-1.161-2.729-1.161
	c-2.063,0-3.734,1.647-3.734,3.676c0,0.289,0.031,0.568,0.096,0.839c-3.105-0.154-5.857-1.618-7.699-3.843
	c-0.323,0.544-0.507,1.175-0.507,1.85c0,1.275,0.659,2.4,1.662,3.061c-0.611-0.02-1.188-0.185-1.692-0.461c0,0.017,0,0.031,0,0.046
	c0,1.782,1.287,3.269,2.997,3.607c-0.313,0.083-0.644,0.128-0.985,0.128c-0.24,0-0.475-0.023-0.703-0.064
	c0.476,1.461,1.855,2.521,3.49,2.552c-1.279,0.988-2.889,1.573-4.64,1.573c-0.302,0-0.598-0.015-0.891-0.048
	c1.654,1.042,3.617,1.65,5.728,1.65c6.872,0,10.629-5.603,10.629-10.463c0-0.159-0.003-0.317-0.011-0.475
	c0.73-0.52,1.362-1.167,1.864-1.903c-0.67,0.292-1.39,0.489-2.146,0.578C28.673,14.597,29.263,13.876,29.543,13.018 M20.031,0
	C8.968,0,0,8.968,0,20.031c0,11.063,8.968,20.031,20.031,20.031c11.063,0,20.031-8.969,20.031-20.031
	C40.063,8.968,31.094,0,20.031,0 M20.031,38.241c-10.058,0-18.21-8.151-18.21-18.21c0-10.056,8.152-18.21,18.21-18.21
	c10.059,0,18.21,8.155,18.21,18.21C38.241,30.09,30.09,38.241,20.031,38.241"/>
</svg>
