<?xml version="1.0" encoding="UTF-8"?>
<!DOCTYPE svg PUBLIC "-//W3C//DTD SVG 1.1//EN" "http://www.w3.org/Graphics/SVG/1.1/DTD/svg11.dtd">
<!-- Creator: CorelDRAW -->
<svg xmlns="http://www.w3.org/2000/svg" xml:space="preserve" width="8.50634in" height="8.50634in" style="shape-rendering:geometricPrecision; text-rendering:geometricPrecision; image-rendering:optimizeQuality; fill-rule:evenodd; clip-rule:evenodd"
viewBox="0 0 8.50634 8.50634"
 xmlns:xlink="http://www.w3.org/1999/xlink">
 <defs>
  <style type="text/css">
   <![CDATA[
    .fil0 {fill:#333333}
   ]]>
  </style>
 </defs>
 <g id="Layer_x0020_1">
  <metadata id="CorelCorpID_0Corel-Layer"/>
  <path class="fil0" d="M3.30689 6.94802c0.244724,-0.10502 0.479291,-0.143283 0.703701,-0.114787 -0.196697,-0.711287 -0.526087,-1.14049 -0.988173,-1.28762 -0.288531,-0.10778 -0.920701,-0.122756 -1.8965,-0.0449213 0.228583,0.171323 0.40326,0.349331 0.524035,0.534016 0.324283,0.494843 0.605429,0.800945 0.843445,0.918307 0.217807,0.108772 0.488972,0.10711 0.813496,-0.00499213z"/>
  <path class="fil0" d="M2.17898 5.30106c0.22115,0.00461024 0.449059,0.0345551 0.68374,0.0898346 -0.396602,-0.543193 -0.957232,-0.776098 -1.6819,-0.698709 -0.571413,0.0121457 -0.844244,0.210114 -0.818492,0.593902 0.0732559,0.256638 0.306157,0.314862 0.698713,0.174677 0.374409,-0.124803 0.747055,-0.178035 1.11794,-0.159705z"/>
  <path class="fil0" d="M1.61502 3.95854c0.272154,0.339504 0.486756,0.574071 0.643815,0.703701 -0.11174,-0.440819 -0.126717,-0.893315 -0.0449173,-1.3575 0.135638,-0.712693 0.0042126,-1.11861 -0.394276,-1.21776 -0.400512,-0.0153622 -0.596815,0.184268 -0.588909,0.598894 -0.00949606,0.495244 0.118602,0.919461 0.384287,1.27266z"/>
  <path class="fil0" d="M3.70117 3.12008c0.223772,0.294028 0.395126,0.566858 0.514051,0.818492 0.0219016,-0.942858 -0.0995394,-1.57004 -0.364327,-1.88153 -0.55198,-0.533051 -0.961224,-0.717709 -1.22774,-0.553972 -0.206626,0.128575 -0.291469,0.309909 -0.254531,0.543992 0.0532362,0.164787 0.227913,0.307858 0.524035,0.429209 0.410705,0.220508 0.680209,0.43511 0.808508,0.643811z"/>
  <path class="fil0" d="M4.19027 1.7576c0.0550591,0.521843 0.0816772,0.877854 0.0798504,1.06803 0.636079,-0.983252 0.835709,-1.58215 0.598894,-1.79669 -0.187843,-0.107626 -0.347551,-0.100972 -0.479114,0.0199646 -0.174252,0.200669 -0.240795,0.436902 -0.19963,0.708693z"/>
  <path class="fil0" d="M5.35312 1.72765c-0.635205,0.398425 -0.952953,1.01894 -0.953244,1.86157 0.180787,-0.308705 0.488551,-0.599835 0.923299,-0.87339 0.57172,-0.373748 0.782996,-0.656559 0.633827,-0.848433 -0.147248,-0.221819 -0.348547,-0.268402 -0.603882,-0.139748z"/>
  <path class="fil0" d="M6.20156 3.72397c0.0580197,0.365803 0.0347283,0.705177 -0.0698701,1.01812 0.639516,-0.599988 0.998854,-1.13733 1.07801,-1.61202 0.0825787,-0.600154 -0.0721299,-0.931209 -0.464142,-0.993169 -0.395031,-0.00314567 -0.601315,0.238079 -0.618858,0.723665 -0.0135118,0.230827 0.0114449,0.518634 0.0748622,0.863409z"/>
  <path class="fil0" d="M6.02915 3.6793c-0.137819,-0.49611 -0.180169,-0.895453 -0.127043,-1.19803 -1.08016,0.640201 -1.60919,1.34889 -1.58707,2.12607 -0.0449055,0.905791 -0.0330118,1.60794 0.0356732,2.10644 0.185791,-0.57735 0.501882,-1.0262 0.948272,-1.34655 0.602102,-0.497421 0.845496,-1.06007 0.730173,-1.68793z"/>
  <path class="fil0" d="M5.06191 5.74654c-0.294614,0.227902 -0.509555,0.600886 -0.644823,1.11896 0.246724,-0.0208898 0.486772,0.0265276 0.720146,0.142244 0.435799,0.163713 0.799484,0.0783661 1.09106,-0.256035 0.483402,-0.704535 0.821618,-1.10281 1.01465,-1.19482 -1.04501,-0.160374 -1.77202,-0.0971535 -2.18103,0.189654z"/>
  <path class="fil0" d="M7.72657 4.79826c-1.01769,-0.179457 -1.75734,0.0354882 -2.21896,0.644827 0.627402,-0.152496 1.17424,-0.152496 1.64052,0 0.567433,0.157335 0.880358,0.160496 0.938791,0.00948425 0.162213,-0.281134 0.0420984,-0.499236 -0.360343,-0.654311z"/>
  <path class="fil0" d="M3.61105 5.7655c0.20922,0.235087 0.373587,0.541697 0.493106,0.919827 0.165563,-1.70105 0.0612559,-2.75363 -0.312933,-3.15775 -0.393811,-0.495638 -0.836339,-0.855976 -1.32758,-1.08103 0.0762717,0.318524 0.0446614,0.726283 -0.0948268,1.22327 -0.100705,0.361331 -0.0627717,0.712193 0.113795,1.05259 0.191386,0.289642 0.567535,0.637343 1.12844,1.0431z"/>
  <circle class="fil0" cx="7.62225" cy="4.15344" r="0.331895"/>
  <circle class="fil0" cx="0.861059" cy="6.40085" r="0.322412"/>
 </g>
</svg>
