<?xml version="1.0" encoding="UTF-8"?>
<!DOCTYPE svg PUBLIC "-//W3C//DTD SVG 1.1//EN" "http://www.w3.org/Graphics/SVG/1.1/DTD/svg11.dtd">
<!-- Creator: CorelDRAW -->
<svg xmlns="http://www.w3.org/2000/svg" xml:space="preserve" width="3.93701in" height="3.74925in" style="shape-rendering:geometricPrecision; text-rendering:geometricPrecision; image-rendering:optimizeQuality; fill-rule:evenodd; clip-rule:evenodd"
viewBox="0 0 3.93701 3.74925"
 xmlns:xlink="http://www.w3.org/1999/xlink">
 <defs>
  <style type="text/css">
   <![CDATA[
    .fil0 {fill:none}
    .fil1 {fill:#01BBD4}
    .fil2 {fill:#0CB3CF}
    .fil3 {fill:#17ACC9}
    .fil4 {fill:#22A4C4}
    .fil5 {fill:#2D9DBE}
    .fil6 {fill:#3895B9}
    .fil7 {fill:#438EB3}
    .fil8 {fill:#4E86AE}
    .fil9 {fill:#597FA9}
    .fil10 {fill:#6477A3}
    .fil11 {fill:#6F709E}
    .fil12 {fill:#7B6898}
    .fil13 {fill:#866193}
    .fil14 {fill:#91598D}
    .fil15 {fill:#9C5288}
    .fil16 {fill:#A74A83}
    .fil17 {fill:#B2437D}
    .fil18 {fill:#BD3B78}
    .fil19 {fill:#C83472}
    .fil20 {fill:#D32C6D}
    .fil21 {fill:#DE2567}
    .fil22 {fill:#E91D62}
   ]]>
  </style>
 </defs>
 <g id="Layer_x0020_1">
  <metadata id="CorelCorpID_0Corel-Layer"/>
  <rect class="fil0" width="3.93701" height="3.74925"/>
  <rect class="fil1" width="3.93701" height="3.74925"/>
  <g id="_181119592">
   <path id="_180773160" class="fil2" d="M3.93701e-006 0c1.31234,0 2.62467,0 3.937,0 0,1.20452 0,2.40904 0,3.61356 -1.31234,0 -2.62467,0 -3.937,0 0,-1.20452 0,-2.40904 0,-3.61356z"/>
   <path id="_180774288" class="fil3" d="M3.93701e-006 0c1.31234,0 2.62467,0 3.937,0 0,1.1593 0,2.31859 0,3.47788 -1.31234,0 -2.62467,0 -3.937,0 0,-1.1593 0,-2.31859 0,-3.47788z"/>
   <path id="_180771216" class="fil4" d="M3.93701e-006 0c1.31234,0 2.62467,0 3.937,0 0,1.11407 0,2.22813 0,3.3422 -1.31234,0 -2.62467,0 -3.937,0 0,-1.11407 0,-2.22813 0,-3.3422z"/>
   <path id="_181119256" class="fil5" d="M3.93701e-006 0c1.31234,0 2.62467,0 3.937,0 0,1.06884 0,2.13767 0,3.20652 -1.31234,0 -2.62467,0 -3.937,0 0,-1.06884 0,-2.13767 0,-3.20652z"/>
   <path id="_180770784" class="fil6" d="M3.93701e-006 0c1.31234,0 2.62467,0 3.937,0 0,1.02361 0,2.04722 0,3.07083 -1.31234,0 -2.62467,0 -3.937,0 0,-1.02361 0,-2.04722 0,-3.07083z"/>
   <path id="_176786496" class="fil7" d="M3.93701e-006 0c1.31234,0 2.62467,0 3.937,0 0,0.978386 0,1.95676 0,2.93515 -1.31234,0 -2.62467,0 -3.937,0 0,-0.978382 0,-1.95676 0,-2.93515z"/>
   <path id="_176783760" class="fil8" d="M3.93701e-006 0c1.31234,0 2.62467,0 3.937,0 0,0.933157 0,1.86631 0,2.79946 -1.31234,0 -2.62467,0 -3.937,0 0,-0.933154 0,-1.86631 0,-2.79946z"/>
   <path id="_180772488" class="fil9" d="M3.93701e-006 0c1.31234,0 2.62467,0 3.937,0 0,0.887929 0,1.77585 0,2.66378 -1.31234,0 -2.62467,0 -3.937,0 0,-0.887925 0,-1.77585 0,-2.66378z"/>
   <path id="_66793520" class="fil10" d="M3.93701e-006 0c1.31234,0 2.62467,0 3.937,0 0,0.842701 0,1.6854 0,2.52809 -1.31234,0 -2.62467,0 -3.937,0 0,-0.842693 0,-1.68539 0,-2.52809z"/>
   <path id="_176784864" class="fil11" d="M3.93701e-006 0c1.31234,0 2.62467,0 3.937,0 0,0.797472 0,1.59494 0,2.39241 -1.31234,0 -2.62467,0 -3.937,0 0,-0.797469 0,-1.59494 0,-2.39241z"/>
   <path id="_181119328" class="fil12" d="M3.93701e-006 0c1.31234,0 2.62467,0 3.937,0 0,0.752248 0,1.50449 0,2.25673 -1.31234,0 -2.62467,0 -3.937,0 0,-0.75224 0,-1.50448 0,-2.25673z"/>
   <path id="_180772992" class="fil13" d="M3.93701e-006 0c1.31234,0 2.62467,0 3.937,0 0,0.70702 0,1.41403 0,2.12105 -1.31234,0 -2.62467,0 -3.937,0 0,-0.707016 0,-1.41403 0,-2.12105z"/>
   <path id="_180774240" class="fil14" d="M3.93701e-006 0c1.31234,0 2.62467,0 3.937,0 0,0.661791 0,1.32358 0,1.98536 -1.31234,0 -2.62467,0 -3.937,0 0,-0.661783 0,-1.32357 0,-1.98536z"/>
   <path id="_180772584" class="fil15" d="M3.93701e-006 0c1.31234,0 2.62467,0 3.937,0 0,0.616563 0,1.23312 0,1.84968 -1.31234,0 -2.62467,0 -3.937,0 0,-0.616559 0,-1.23312 0,-1.84968z"/>
   <path id="_181120192" class="fil16" d="M3.93701e-006 0c1.31234,0 2.62467,0 3.937,0 0,0.571335 0,1.14267 0,1.714 -1.31234,0 -2.62467,0 -3.937,0 0,-0.571335 0,-1.14267 0,-1.714z"/>
   <path id="_181117024" class="fil17" d="M3.93701e-006 0c1.31234,0 2.62467,0 3.937,0 0,0.526106 0,1.05221 0,1.57831 -1.31234,0 -2.62467,0 -3.937,0 0,-0.526102 0,-1.05221 0,-1.57831z"/>
   <path id="_181119976" class="fil18" d="M3.93701e-006 0c1.31234,0 2.62467,0 3.937,0 0,0.480878 0,0.961756 0,1.44263 -1.31234,0 -2.62467,0 -3.937,0 0,-0.480874 0,-0.961752 0,-1.44263z"/>
   <path id="_181119064" class="fil19" d="M3.93701e-006 0c1.31234,0 2.62467,0 3.937,0 0,0.435654 0,0.871299 0,1.30695 -1.31234,0 -2.62467,0 -3.937,0 0,-0.43565 0,-0.871295 0,-1.30695z"/>
   <path id="_181119160" class="fil20" d="M3.93701e-006 0c1.31234,0 2.62467,0 3.937,0 0,0.390425 0,0.780843 0,1.17126 -1.31234,0 -2.62467,0 -3.937,0 0,-0.390421 0,-0.780839 0,-1.17126z"/>
   <path id="_181121848" class="fil21" d="M3.93701e-006 0c1.31234,0 2.62467,0 3.937,0 0,0.345197 0,0.69039 0,1.03558 -1.31234,0 -2.62467,0 -3.937,0 0,-0.345193 0,-0.690386 0,-1.03558z"/>
  </g>
  <rect class="fil22" width="3.93701" height="0.899898"/>
 </g>
</svg>
