<svg xmlns="http://www.w3.org/2000/svg" width="1920" height="1080"><path d="M372,-255L586,-245L815,-245Z" fill="#ffd4af" stroke="#ffd4af" stroke-width="1.51"/><path d="M180,-259L372,-255L1387,-255Z" fill="#ffd1aa" stroke="#ffd1aa" stroke-width="1.51"/><path d="M815,-245L1247,-250L1387,-255Z" fill="#ffb687" stroke="#ffb687" stroke-width="1.51"/><path d="M372,-255L815,-245L1387,-255Z" fill="#ffc699" stroke="#ffc699" stroke-width="1.51"/><path d="M1682,1259L1395,1341L1873,1302Z" fill="#a93704" stroke="#a93704" stroke-width="1.51"/><path d="M1387,-255L1647,-185L1890,-230Z" fill="#f09d75" stroke="#f09d75" stroke-width="1.51"/><path d="M1387,-255L1890,-230L1945,-250Z" fill="#e89a75" stroke="#e89a75" stroke-width="1.51"/><path d="M1873,1302L1395,1341L2099,1287Z" fill="#9d3204" stroke="#9d3204" stroke-width="1.51"/><path d="M1944,1294L1873,1302L2099,1287Z" fill="#912e04" stroke="#912e04" stroke-width="1.51"/><path d="M2112,999L2099,1127L2137,909Z" fill="#a63604" stroke="#a63604" stroke-width="1.51"/><path d="M2099,1127L2099,1287L2137,909Z" fill="#9b3104" stroke="#9b3104" stroke-width="1.51"/><path d="M2118,382L2020,450L2150,518Z" fill="#c3632a" stroke="#c3632a" stroke-width="1.51"/><path d="M2150,518L2014,575L2163,631Z" fill="#c0581c" stroke="#c0581c" stroke-width="1.51"/><path d="M2064,724L2137,909L2163,631Z" fill="#ba480a" stroke="#ba480a" stroke-width="1.51"/><path d="M2083,-181L2074,-98L2167,182Z" fill="#c78561" stroke="#c78561" stroke-width="1.51"/><path d="M2074,-98L2080,111L2167,182Z" fill="#c78058" stroke="#c78058" stroke-width="1.51"/><path d="M2080,111L2005,157L2167,182Z" fill="#c67b4f" stroke="#c67b4f" stroke-width="1.51"/><path d="M2030,379L2118,382L2167,182Z" fill="#c36d39" stroke="#c36d39" stroke-width="1.51"/><path d="M2005,157L2030,379L2167,182Z" fill="#c77544" stroke="#c77544" stroke-width="1.51"/><path d="M2118,382L2150,518L2167,182Z" fill="#c06834" stroke="#c06834" stroke-width="1.51"/><path d="M2150,518L2163,631L2167,182Z" fill="#be622b" stroke="#be622b" stroke-width="1.51"/><path d="M2014,575L2064,724L2163,631Z" fill="#c05316" stroke="#c05316" stroke-width="1.51"/><path d="M2014,575L2003,688L2064,724Z" fill="#c35314" stroke="#c35314" stroke-width="1.51"/><path d="M2064,724L1968,931L2137,909Z" fill="#b84206" stroke="#b84206" stroke-width="1.51"/><path d="M2020,450L2014,575L2150,518Z" fill="#c45e22" stroke="#c45e22" stroke-width="1.51"/><path d="M1968,931L2112,999L2137,909Z" fill="#b23a03" stroke="#b23a03" stroke-width="1.51"/><path d="M2074,-98L1912,-77L2080,111Z" fill="#cd8761" stroke="#cd8761" stroke-width="1.51"/><path d="M1912,-77L1954,125L2080,111Z" fill="#d0845a" stroke="#d0845a" stroke-width="1.51"/><path d="M2099,1127L1944,1294L2099,1287Z" fill="#922e04" stroke="#922e04" stroke-width="1.51"/><path d="M1975,1024L2099,1127L2112,999Z" fill="#a53503" stroke="#a53503" stroke-width="1.51"/><path d="M2030,379L2020,450L2118,382Z" fill="#c66830" stroke="#c66830" stroke-width="1.51"/><path d="M1924,1092L1944,1294L2099,1127Z" fill="#9c3204" stroke="#9c3204" stroke-width="1.51"/><path d="M1968,931L1975,1024L2112,999Z" fill="#b13903" stroke="#b13903" stroke-width="1.51"/><path d="M1975,1024L1924,1092L2099,1127Z" fill="#a53604" stroke="#a53604" stroke-width="1.51"/><path d="M1912,-77L1880,74L1954,125Z" fill="#d4875c" stroke="#d4875c" stroke-width="1.51"/><path d="M2005,157L1864,237L2030,379Z" fill="#ce7642" stroke="#ce7642" stroke-width="1.51"/><path d="M2003,688L1968,931L2064,724Z" fill="#bf4909" stroke="#bf4909" stroke-width="1.51"/><path d="M1954,125L2005,157L2080,111Z" fill="#cc7f52" stroke="#cc7f52" stroke-width="1.51"/><path d="M1912,-77L2074,-98L2083,-181Z" fill="#cf8b69" stroke="#cf8b69" stroke-width="1.51"/><path d="M1945,-250L1912,-77L2083,-181Z" fill="#d38f6d" stroke="#d38f6d" stroke-width="1.51"/><path d="M1891,-98L1912,-77L1945,-250Z" fill="#d78f6c" stroke="#d78f6c" stroke-width="1.51"/><path d="M1853,901L1968,931L2003,688Z" fill="#c04506" stroke="#c04506" stroke-width="1.51"/><path d="M1864,237L1863,355L2030,379Z" fill="#d0723a" stroke="#d0723a" stroke-width="1.51"/><path d="M1924,1092L1851,1206L1944,1294Z" fill="#9e3304" stroke="#9e3304" stroke-width="1.51"/><path d="M1890,-230L1891,-98L1945,-250Z" fill="#d8916f" stroke="#d8916f" stroke-width="1.51"/><path d="M1781,751L1853,901L2003,688Z" fill="#c84c08" stroke="#c84c08" stroke-width="1.51"/><path d="M1801,493L2014,575L2020,450Z" fill="#cc6324" stroke="#cc6324" stroke-width="1.51"/><path d="M1863,355L2020,450L2030,379Z" fill="#cb6b31" stroke="#cb6b31" stroke-width="1.51"/><path d="M1954,125L1864,237L2005,157Z" fill="#d17e4d" stroke="#d17e4d" stroke-width="1.51"/><path d="M1780,625L2003,688L2014,575Z" fill="#ca5817" stroke="#ca5817" stroke-width="1.51"/><path d="M1863,355L1801,493L2020,450Z" fill="#d16a2d" stroke="#d16a2d" stroke-width="1.51"/><path d="M1801,493L1780,625L2014,575Z" fill="#d1601e" stroke="#d1601e" stroke-width="1.51"/><path d="M1780,625L1781,751L2003,688Z" fill="#ce5511" stroke="#ce5511" stroke-width="1.51"/><path d="M1853,901L1847,1043L1968,931Z" fill="#bd3e02" stroke="#bd3e02" stroke-width="1.51"/><path d="M1968,931L1847,1043L1975,1024Z" fill="#b43b03" stroke="#b43b03" stroke-width="1.51"/><path d="M1847,1043L1924,1092L1975,1024Z" fill="#ae3903" stroke="#ae3903" stroke-width="1.51"/><path d="M1851,1206L1873,1302L1944,1294Z" fill="#993104" stroke="#993104" stroke-width="1.51"/><path d="M1880,74L1864,237L1954,125Z" fill="#d38251" stroke="#d38251" stroke-width="1.51"/><path d="M1105,1275L714,1342L1395,1341Z" fill="#be5418" stroke="#be5418" stroke-width="1.51"/><path d="M1891,-98L1753,-32L1912,-77Z" fill="#db8f68" stroke="#db8f68" stroke-width="1.51"/><path d="M1753,-32L1880,74L1912,-77Z" fill="#da8c62" stroke="#da8c62" stroke-width="1.51"/><path d="M1847,1043L1851,1206L1924,1092Z" fill="#aa3703" stroke="#aa3703" stroke-width="1.51"/><path d="M1847,1043L1750,1113L1851,1206Z" fill="#ae3803" stroke="#ae3803" stroke-width="1.51"/><path d="M1740,214L1864,237L1880,74Z" fill="#d9824e" stroke="#d9824e" stroke-width="1.51"/><path d="M1697,115L1740,214L1880,74Z" fill="#de8754" stroke="#de8754" stroke-width="1.51"/><path d="M1890,-230L1647,-185L1891,-98Z" fill="#e0956f" stroke="#e0956f" stroke-width="1.51"/><path d="M1647,-185L1753,-32L1891,-98Z" fill="#e3946b" stroke="#e3946b" stroke-width="1.51"/><path d="M1725,986L1847,1043L1853,901Z" fill="#c03f02" stroke="#c03f02" stroke-width="1.51"/><path d="M1738,370L1801,493L1863,355Z" fill="#d96f31" stroke="#d96f31" stroke-width="1.51"/><path d="M1738,370L1863,355L1864,237Z" fill="#d7763b" stroke="#d7763b" stroke-width="1.51"/><path d="M1740,214L1738,370L1864,237Z" fill="#dc7b42" stroke="#dc7b42" stroke-width="1.51"/><path d="M1753,-32L1697,115L1880,74Z" fill="#e08c5d" stroke="#e08c5d" stroke-width="1.51"/><path d="M1851,1206L1682,1259L1873,1302Z" fill="#a13404" stroke="#a13404" stroke-width="1.51"/><path d="M1781,751L1676,910L1853,901Z" fill="#cd4905" stroke="#cd4905" stroke-width="1.51"/><path d="M1676,910L1725,986L1853,901Z" fill="#ca4302" stroke="#ca4302" stroke-width="1.51"/><path d="M1750,1113L1682,1259L1851,1206Z" fill="#aa3703" stroke="#aa3703" stroke-width="1.51"/><path d="M1738,370L1727,473L1801,493Z" fill="#dc6e2c" stroke="#dc6e2c" stroke-width="1.51"/><path d="M1725,986L1750,1113L1847,1043Z" fill="#ba3d03" stroke="#ba3d03" stroke-width="1.51"/><path d="M1718,731L1676,910L1781,751Z" fill="#d44f07" stroke="#d44f07" stroke-width="1.51"/><path d="M1780,625L1718,731L1781,751Z" fill="#d6570f" stroke="#d6570f" stroke-width="1.51"/><path d="M1727,473L1780,625L1801,493Z" fill="#da6622" stroke="#da6622" stroke-width="1.51"/><path d="M1727,473L1644,641L1780,625Z" fill="#de631d" stroke="#de631d" stroke-width="1.51"/><path d="M1644,641L1718,731L1780,625Z" fill="#db5b14" stroke="#db5b14" stroke-width="1.51"/><path d="M1528,1234L1395,1341L1682,1259Z" fill="#b43c04" stroke="#b43c04" stroke-width="1.51"/><path d="M1521,-21L1519,40L1697,115Z" fill="#f29360" stroke="#f29360" stroke-width="1.51"/><path d="M1563,802L1676,910L1718,731Z" fill="#da5106" stroke="#da5106" stroke-width="1.51"/><path d="M1583,572L1644,641L1727,473Z" fill="#e4671f" stroke="#e4671f" stroke-width="1.51"/><path d="M1594,337L1738,370L1740,214Z" fill="#e37c3e" stroke="#e37c3e" stroke-width="1.51"/><path d="M1725,986L1563,1098L1750,1113Z" fill="#c03f02" stroke="#c03f02" stroke-width="1.51"/><path d="M1563,1098L1682,1259L1750,1113Z" fill="#b63b03" stroke="#b63b03" stroke-width="1.51"/><path d="M1521,-21L1697,115L1753,-32Z" fill="#eb9262" stroke="#eb9262" stroke-width="1.51"/><path d="M1607,-160L1521,-21L1753,-32Z" fill="#ef976b" stroke="#ef976b" stroke-width="1.51"/><path d="M1647,-185L1607,-160L1753,-32Z" fill="#ec986e" stroke="#ec986e" stroke-width="1.51"/><path d="M1594,337L1553,418L1727,473Z" fill="#e87532" stroke="#e87532" stroke-width="1.51"/><path d="M1594,337L1727,473L1738,370Z" fill="#e27533" stroke="#e27533" stroke-width="1.51"/><path d="M1697,115L1541,262L1740,214Z" fill="#e8864d" stroke="#e8864d" stroke-width="1.51"/><path d="M1541,262L1594,337L1740,214Z" fill="#e98144" stroke="#e98144" stroke-width="1.51"/><path d="M1553,418L1583,572L1727,473Z" fill="#e76f29" stroke="#e76f29" stroke-width="1.51"/><path d="M1676,910L1563,1098L1725,986Z" fill="#ca4302" stroke="#ca4302" stroke-width="1.51"/><path d="M1577,898L1563,1098L1676,910Z" fill="#d34601" stroke="#d34601" stroke-width="1.51"/><path d="M1644,641L1563,802L1718,731Z" fill="#df580d" stroke="#df580d" stroke-width="1.51"/><path d="M1506,964L1563,1098L1577,898Z" fill="#d44702" stroke="#d44702" stroke-width="1.51"/><path d="M1387,-255L1607,-160L1647,-185Z" fill="#f8a075" stroke="#f8a075" stroke-width="1.51"/><path d="M1563,802L1577,898L1676,910Z" fill="#da4e04" stroke="#da4e04" stroke-width="1.51"/><path d="M1563,1098L1528,1234L1682,1259Z" fill="#b83c03" stroke="#b83c03" stroke-width="1.51"/><path d="M1519,40L1541,262L1697,115Z" fill="#ef8e56" stroke="#ef8e56" stroke-width="1.51"/><path d="M1519,40L1476,228L1541,262Z" fill="#f28e53" stroke="#f28e53" stroke-width="1.51"/><path d="M1470,716L1563,802L1644,641Z" fill="#e65b0d" stroke="#e65b0d" stroke-width="1.51"/><path d="M1583,572L1470,716L1644,641Z" fill="#e86217" stroke="#e86217" stroke-width="1.51"/><path d="M1553,418L1432,555L1583,572Z" fill="#ee7026" stroke="#ee7026" stroke-width="1.51"/><path d="M1352,-115L1412,-43L1607,-160Z" fill="#f9a171" stroke="#f9a171" stroke-width="1.51"/><path d="M1387,-255L1352,-115L1607,-160Z" fill="#fba376" stroke="#fba376" stroke-width="1.51"/><path d="M1412,-43L1521,-21L1607,-160Z" fill="#f79d6e" stroke="#f79d6e" stroke-width="1.51"/><path d="M1477,1098L1528,1234L1563,1098Z" fill="#c24103" stroke="#c24103" stroke-width="1.51"/><path d="M1506,964L1477,1098L1563,1098Z" fill="#cd4603" stroke="#cd4603" stroke-width="1.51"/><path d="M1432,555L1470,716L1583,572Z" fill="#ec691c" stroke="#ec691c" stroke-width="1.51"/><path d="M1442,362L1553,418L1594,337Z" fill="#ee7c38" stroke="#ee7c38" stroke-width="1.51"/><path d="M1541,262L1442,362L1594,337Z" fill="#ef813f" stroke="#ef813f" stroke-width="1.51"/><path d="M1563,802L1427,859L1577,898Z" fill="#e15206" stroke="#e15206" stroke-width="1.51"/><path d="M1427,859L1506,964L1577,898Z" fill="#de4f04" stroke="#de4f04" stroke-width="1.51"/><path d="M1410,414L1432,555L1553,418Z" fill="#f0782e" stroke="#f0782e" stroke-width="1.51"/><path d="M1470,716L1427,859L1563,802Z" fill="#e5590a" stroke="#e5590a" stroke-width="1.51"/><path d="M1352,76L1476,228L1519,40Z" fill="#f5965b" stroke="#f5965b" stroke-width="1.51"/><path d="M1442,362L1410,414L1553,418Z" fill="#f07d36" stroke="#f07d36" stroke-width="1.51"/><path d="M1412,1018L1477,1098L1506,964Z" fill="#d24a04" stroke="#d24a04" stroke-width="1.51"/><path d="M1476,228L1442,362L1541,262Z" fill="#f18645" stroke="#f18645" stroke-width="1.51"/><path d="M1477,1098L1338,1254L1528,1234Z" fill="#bf4305" stroke="#bf4305" stroke-width="1.51"/><path d="M1338,1254L1395,1341L1528,1234Z" fill="#b84206" stroke="#b84206" stroke-width="1.51"/><path d="M1412,-43L1379,8L1519,40Z" fill="#f89c68" stroke="#f89c68" stroke-width="1.51"/><path d="M1379,8L1352,76L1519,40Z" fill="#f89b64" stroke="#f89b64" stroke-width="1.51"/><path d="M1412,-43L1519,40L1521,-21Z" fill="#f79a68" stroke="#f79a68" stroke-width="1.51"/><path d="M1427,859L1412,1018L1506,964Z" fill="#dd4f04" stroke="#dd4f04" stroke-width="1.51"/><path d="M1350,793L1427,859L1470,716Z" fill="#e85e0d" stroke="#e85e0d" stroke-width="1.51"/><path d="M1432,555L1328,559L1470,716Z" fill="#ef6d1e" stroke="#ef6d1e" stroke-width="1.51"/><path d="M1328,559L1350,793L1470,716Z" fill="#ee6817" stroke="#ee6817" stroke-width="1.51"/><path d="M1352,76L1298,191L1476,228Z" fill="#f79658" stroke="#f79658" stroke-width="1.51"/><path d="M1307,288L1442,362L1476,228Z" fill="#f48a45" stroke="#f48a45" stroke-width="1.51"/><path d="M1412,1018L1296,1120L1477,1098Z" fill="#cf4b06" stroke="#cf4b06" stroke-width="1.51"/><path d="M1296,1120L1338,1254L1477,1098Z" fill="#c64907" stroke="#c64907" stroke-width="1.51"/><path d="M1298,191L1307,288L1476,228Z" fill="#f7914e" stroke="#f7914e" stroke-width="1.51"/><path d="M815,-245L991,-189L1247,-250Z" fill="#ffbc8d" stroke="#ffbc8d" stroke-width="1.51"/><path d="M1298,874L1412,1018L1427,859Z" fill="#e25507" stroke="#e25507" stroke-width="1.51"/><path d="M1410,414L1328,559L1432,555Z" fill="#f3782a" stroke="#f3782a" stroke-width="1.51"/><path d="M1307,288L1410,414L1442,362Z" fill="#f4853d" stroke="#f4853d" stroke-width="1.51"/><path d="M1271,484L1328,559L1410,414Z" fill="#f57c2f" stroke="#f57c2f" stroke-width="1.51"/><path d="M1328,559L1183,683L1350,793Z" fill="#f26e1b" stroke="#f26e1b" stroke-width="1.51"/><path d="M1298,874L1240,982L1412,1018Z" fill="#e25508" stroke="#e25508" stroke-width="1.51"/><path d="M1350,793L1298,874L1427,859Z" fill="#e75c0c" stroke="#e75c0c" stroke-width="1.51"/><path d="M1307,288L1271,484L1410,414Z" fill="#f6853a" stroke="#f6853a" stroke-width="1.51"/><path d="M1352,-115L1379,8L1412,-43Z" fill="#fba26f" stroke="#fba26f" stroke-width="1.51"/><path d="M1240,982L1296,1120L1412,1018Z" fill="#d75208" stroke="#d75208" stroke-width="1.51"/><path d="M1247,-250L1352,-115L1387,-255Z" fill="#ffaa7c" stroke="#ffaa7c" stroke-width="1.51"/><path d="M1338,1254L1105,1275L1395,1341Z" fill="#bc480a" stroke="#bc480a" stroke-width="1.51"/><path d="M1247,-250L1210,-163L1352,-115Z" fill="#ffac7b" stroke="#ffac7b" stroke-width="1.51"/><path d="M1352,-115L1157,-11L1379,8Z" fill="#fea670" stroke="#fea670" stroke-width="1.51"/><path d="M1157,-11L1352,76L1379,8Z" fill="#fca269" stroke="#fca269" stroke-width="1.51"/><path d="M1174,422L1271,484L1307,288Z" fill="#f9883c" stroke="#f9883c" stroke-width="1.51"/><path d="M1131,53L1298,191L1352,76Z" fill="#fc9f62" stroke="#fc9f62" stroke-width="1.51"/><path d="M1157,-11L1131,53L1352,76Z" fill="#fea66c" stroke="#fea66c" stroke-width="1.51"/><path d="M1210,-163L1157,-11L1352,-115Z" fill="#ffab77" stroke="#ffab77" stroke-width="1.51"/><path d="M1183,683L1298,874L1350,793Z" fill="#ee6611" stroke="#ee6611" stroke-width="1.51"/><path d="M1131,53L1184,203L1298,191Z" fill="#fda060" stroke="#fda060" stroke-width="1.51"/><path d="M1183,546L1183,683L1328,559Z" fill="#f67826" stroke="#f67826" stroke-width="1.51"/><path d="M1296,1120L1152,1184L1338,1254Z" fill="#c74e0a" stroke="#c74e0a" stroke-width="1.51"/><path d="M1152,1184L1105,1275L1338,1254Z" fill="#c35010" stroke="#c35010" stroke-width="1.51"/><path d="M1271,484L1183,546L1328,559Z" fill="#f77c2b" stroke="#f77c2b" stroke-width="1.51"/><path d="M1240,982L1147,1043L1296,1120Z" fill="#d9560d" stroke="#d9560d" stroke-width="1.51"/><path d="M1183,683L1102,848L1298,874Z" fill="#ef6917" stroke="#ef6917" stroke-width="1.51"/><path d="M1298,191L1184,203L1307,288Z" fill="#fb9652" stroke="#fb9652" stroke-width="1.51"/><path d="M1184,203L1122,310L1307,288Z" fill="#fb9650" stroke="#fb9650" stroke-width="1.51"/><path d="M1122,310L1174,422L1307,288Z" fill="#fa9046" stroke="#fa9046" stroke-width="1.51"/><path d="M403,1281L106,1324L714,1342Z" fill="#c4794c" stroke="#c4794c" stroke-width="1.51"/><path d="M1051,1255L714,1342L1105,1275Z" fill="#c25b20" stroke="#c25b20" stroke-width="1.51"/><path d="M1102,848L1240,982L1298,874Z" fill="#e95f10" stroke="#e95f10" stroke-width="1.51"/><path d="M1147,1043L1152,1184L1296,1120Z" fill="#d15510" stroke="#d15510" stroke-width="1.51"/><path d="M1082,798L1102,848L1183,683Z" fill="#f26f1d" stroke="#f26f1d" stroke-width="1.51"/><path d="M1174,422L1183,546L1271,484Z" fill="#f88334" stroke="#f88334" stroke-width="1.51"/><path d="M1102,848L1147,1043L1240,982Z" fill="#e65f13" stroke="#e65f13" stroke-width="1.51"/><path d="M991,-189L1210,-163L1247,-250Z" fill="#ffb484" stroke="#ffb484" stroke-width="1.51"/><path d="M1174,422L1084,475L1183,546Z" fill="#fa8738" stroke="#fa8738" stroke-width="1.51"/><path d="M1087,639L1183,683L1183,546Z" fill="#f77b29" stroke="#f77b29" stroke-width="1.51"/><path d="M1029,-69L1157,-11L1210,-163Z" fill="#ffb17d" stroke="#ffb17d" stroke-width="1.51"/><path d="M991,-189L1029,-69L1210,-163Z" fill="#ffb583" stroke="#ffb583" stroke-width="1.51"/><path d="M1015,885L1057,1039L1102,848Z" fill="#ea681c" stroke="#ea681c" stroke-width="1.51"/><path d="M1102,848L1057,1039L1147,1043Z" fill="#e56218" stroke="#e56218" stroke-width="1.51"/><path d="M1147,1043L1057,1039L1152,1184Z" fill="#d65b16" stroke="#d65b16" stroke-width="1.51"/><path d="M1057,1039L1014,1136L1152,1184Z" fill="#d35c19" stroke="#d35c19" stroke-width="1.51"/><path d="M1087,639L1082,798L1183,683Z" fill="#f57623" stroke="#f57623" stroke-width="1.51"/><path d="M1131,53L1020,158L1184,203Z" fill="#fea666" stroke="#fea666" stroke-width="1.51"/><path d="M1020,158L1122,310L1184,203Z" fill="#fd9f5b" stroke="#fd9f5b" stroke-width="1.51"/><path d="M1084,475L1087,639L1183,546Z" fill="#fa8331" stroke="#fa8331" stroke-width="1.51"/><path d="M1122,310L1021,388L1174,422Z" fill="#fb9247" stroke="#fb9247" stroke-width="1.51"/><path d="M1021,388L1084,475L1174,422Z" fill="#fb8f42" stroke="#fb8f42" stroke-width="1.51"/><path d="M854,1228L714,1342L1051,1255Z" fill="#c46126" stroke="#c46126" stroke-width="1.51"/><path d="M1064,39L1020,158L1131,53Z" fill="#ffac6f" stroke="#ffac6f" stroke-width="1.51"/><path d="M1051,1255L1105,1275L1152,1184Z" fill="#c55516" stroke="#c55516" stroke-width="1.51"/><path d="M1064,39L1131,53L1157,-11Z" fill="#ffac72" stroke="#ffac72" stroke-width="1.51"/><path d="M1029,-69L1064,39L1157,-11Z" fill="#ffb078" stroke="#ffb078" stroke-width="1.51"/><path d="M1014,1136L1051,1255L1152,1184Z" fill="#ca5918" stroke="#ca5918" stroke-width="1.51"/><path d="M1084,475L945,580L1087,639Z" fill="#fb8735" stroke="#fb8735" stroke-width="1.51"/><path d="M1020,158L940,336L1122,310Z" fill="#fea05a" stroke="#fea05a" stroke-width="1.51"/><path d="M932,700L1082,798L1087,639Z" fill="#f77a27" stroke="#f77a27" stroke-width="1.51"/><path d="M940,336L1021,388L1122,310Z" fill="#fd994f" stroke="#fd994f" stroke-width="1.51"/><path d="M1082,798L1015,885L1102,848Z" fill="#ef6d1e" stroke="#ef6d1e" stroke-width="1.51"/><path d="M1015,885L925,1012L1057,1039Z" fill="#e6681f" stroke="#e6681f" stroke-width="1.51"/><path d="M918,451L945,580L1084,475Z" fill="#fd8f3f" stroke="#fd8f3f" stroke-width="1.51"/><path d="M945,580L932,700L1087,639Z" fill="#fa8332" stroke="#fa8332" stroke-width="1.51"/><path d="M1021,388L918,451L1084,475Z" fill="#fd9345" stroke="#fd9345" stroke-width="1.51"/><path d="M932,700L1015,885L1082,798Z" fill="#f37424" stroke="#f37424" stroke-width="1.51"/><path d="M931,1088L1014,1136L1057,1039Z" fill="#d8621e" stroke="#d8621e" stroke-width="1.51"/><path d="M1029,-69L886,16L1064,39Z" fill="#ffb47d" stroke="#ffb47d" stroke-width="1.51"/><path d="M886,16L1020,158L1064,39Z" fill="#ffb175" stroke="#ffb175" stroke-width="1.51"/><path d="M1014,1136L854,1228L1051,1255Z" fill="#cb5f1f" stroke="#cb5f1f" stroke-width="1.51"/><path d="M925,1012L931,1088L1057,1039Z" fill="#de6620" stroke="#de6620" stroke-width="1.51"/><path d="M932,700L906,895L1015,885Z" fill="#f27627" stroke="#f27627" stroke-width="1.51"/><path d="M906,895L925,1012L1015,885Z" fill="#ed6d23" stroke="#ed6d23" stroke-width="1.51"/><path d="M857,142L940,336L1020,158Z" fill="#ffa967" stroke="#ffa967" stroke-width="1.51"/><path d="M886,16L857,142L1020,158Z" fill="#ffb275" stroke="#ffb275" stroke-width="1.51"/><path d="M991,-189L887,-78L1029,-69Z" fill="#ffbb88" stroke="#ffbb88" stroke-width="1.51"/><path d="M887,-78L886,16L1029,-69Z" fill="#ffba85" stroke="#ffba85" stroke-width="1.51"/><path d="M931,1088L854,1228L1014,1136Z" fill="#d16322" stroke="#d16322" stroke-width="1.51"/><path d="M940,336L918,451L1021,388Z" fill="#fd994e" stroke="#fd994e" stroke-width="1.51"/><path d="M815,-245L861,-167L991,-189Z" fill="#ffc294" stroke="#ffc294" stroke-width="1.51"/><path d="M861,-167L887,-78L991,-189Z" fill="#ffbf8e" stroke="#ffbf8e" stroke-width="1.51"/><path d="M720,260L797,361L857,142Z" fill="#feae6d" stroke="#feae6d" stroke-width="1.51"/><path d="M737,774L906,895L932,700Z" fill="#f57e30" stroke="#f57e30" stroke-width="1.51"/><path d="M797,361L918,451L940,336Z" fill="#fd9e55" stroke="#fd9e55" stroke-width="1.51"/><path d="M857,142L797,361L940,336Z" fill="#fea863" stroke="#fea863" stroke-width="1.51"/><path d="M803,563L932,700L945,580Z" fill="#fb8a3b" stroke="#fb8a3b" stroke-width="1.51"/><path d="M918,451L803,563L945,580Z" fill="#fd9243" stroke="#fd9243" stroke-width="1.51"/><path d="M906,895L789,919L925,1012Z" fill="#ec722a" stroke="#ec722a" stroke-width="1.51"/><path d="M737,774L789,919L906,895Z" fill="#f27b32" stroke="#f27b32" stroke-width="1.51"/><path d="M731,1137L854,1228L931,1088Z" fill="#d2682a" stroke="#d2682a" stroke-width="1.51"/><path d="M925,1012L725,998L931,1088Z" fill="#e16d2a" stroke="#e16d2a" stroke-width="1.51"/><path d="M725,998L731,1137L931,1088Z" fill="#dc6f2e" stroke="#dc6f2e" stroke-width="1.51"/><path d="M803,563L737,774L932,700Z" fill="#fa893b" stroke="#fa893b" stroke-width="1.51"/><path d="M768,470L803,563L918,451Z" fill="#fe984c" stroke="#fe984c" stroke-width="1.51"/><path d="M789,919L725,998L925,1012Z" fill="#e9732e" stroke="#e9732e" stroke-width="1.51"/><path d="M797,361L768,470L918,451Z" fill="#fe9e54" stroke="#fe9e54" stroke-width="1.51"/><path d="M709,106L857,142L886,16Z" fill="#ffb980" stroke="#ffb980" stroke-width="1.51"/><path d="M804,-109L886,16L887,-78Z" fill="#ffbf8c" stroke="#ffbf8c" stroke-width="1.51"/><path d="M861,-167L804,-109L887,-78Z" fill="#ffc291" stroke="#ffc291" stroke-width="1.51"/><path d="M804,-109L709,106L886,16Z" fill="#ffbf89" stroke="#ffbf89" stroke-width="1.51"/><path d="M709,106L720,260L857,142Z" fill="#ffb77a" stroke="#ffb77a" stroke-width="1.51"/><path d="M815,-245L804,-109L861,-167Z" fill="#ffc597" stroke="#ffc597" stroke-width="1.51"/><path d="M731,1137L714,1342L854,1228Z" fill="#c9682f" stroke="#c9682f" stroke-width="1.51"/><path d="M607,-13L640,78L709,106Z" fill="#ffc38f" stroke="#ffc38f" stroke-width="1.51"/><path d="M650,566L737,774L803,563Z" fill="#fb9246" stroke="#fb9246" stroke-width="1.51"/><path d="M607,-13L709,106L804,-109Z" fill="#ffc491" stroke="#ffc491" stroke-width="1.51"/><path d="M586,-245L804,-109L815,-245Z" fill="#ffcb9f" stroke="#ffcb9f" stroke-width="1.51"/><path d="M606,1206L714,1342L731,1137Z" fill="#ca6d35" stroke="#ca6d35" stroke-width="1.51"/><path d="M737,774L641,860L789,919Z" fill="#f28139" stroke="#f28139" stroke-width="1.51"/><path d="M768,470L650,566L803,563Z" fill="#fd9a4e" stroke="#fd9a4e" stroke-width="1.51"/><path d="M543,-152L607,-13L804,-109Z" fill="#ffcb9e" stroke="#ffcb9e" stroke-width="1.51"/><path d="M586,-245L543,-152L804,-109Z" fill="#ffcea4" stroke="#ffcea4" stroke-width="1.51"/><path d="M720,260L618,283L797,361Z" fill="#fdae6c" stroke="#fdae6c" stroke-width="1.51"/><path d="M618,283L630,478L797,361Z" fill="#fdaa65" stroke="#fdaa65" stroke-width="1.51"/><path d="M630,478L768,470L797,361Z" fill="#fea25a" stroke="#fea25a" stroke-width="1.51"/><path d="M641,860L725,998L789,919Z" fill="#ee7b37" stroke="#ee7b37" stroke-width="1.51"/><path d="M709,106L631,232L720,260Z" fill="#feb87b" stroke="#feb87b" stroke-width="1.51"/><path d="M650,566L635,794L737,774Z" fill="#f98e44" stroke="#f98e44" stroke-width="1.51"/><path d="M630,478L650,566L768,470Z" fill="#fd9f56" stroke="#fd9f56" stroke-width="1.51"/><path d="M527,686L635,794L650,566Z" fill="#fb954c" stroke="#fb954c" stroke-width="1.51"/><path d="M641,860L607,987L725,998Z" fill="#ed7d3b" stroke="#ed7d3b" stroke-width="1.51"/><path d="M725,998L607,987L731,1137Z" fill="#e17737" stroke="#e17737" stroke-width="1.51"/><path d="M607,987L606,1206L731,1137Z" fill="#d77539" stroke="#d77539" stroke-width="1.51"/><path d="M635,794L641,860L737,774Z" fill="#f5863f" stroke="#f5863f" stroke-width="1.51"/><path d="M170,1295L106,1324L403,1281Z" fill="#c78159" stroke="#c78159" stroke-width="1.51"/><path d="M640,78L631,232L709,106Z" fill="#febf85" stroke="#febf85" stroke-width="1.51"/><path d="M569,1225L403,1281L714,1342Z" fill="#c6723f" stroke="#c6723f" stroke-width="1.51"/><path d="M606,1206L569,1225L714,1342Z" fill="#c86f39" stroke="#c86f39" stroke-width="1.51"/><path d="M631,232L618,283L720,260Z" fill="#feb576" stroke="#feb576" stroke-width="1.51"/><path d="M512,1223L403,1281L569,1225Z" fill="#ca7745" stroke="#ca7745" stroke-width="1.51"/><path d="M504,1025L606,1206L607,987Z" fill="#de7b41" stroke="#de7b41" stroke-width="1.51"/><path d="M537,252L435,326L618,283Z" fill="#feb97d" stroke="#feb97d" stroke-width="1.51"/><path d="M618,283L435,326L630,478Z" fill="#feb271" stroke="#feb271" stroke-width="1.51"/><path d="M435,326L430,488L630,478Z" fill="#ffb06f" stroke="#ffb06f" stroke-width="1.51"/><path d="M537,252L631,232L640,78Z" fill="#febd84" stroke="#febd84" stroke-width="1.51"/><path d="M494,15L537,252L640,78Z" fill="#fec691" stroke="#fec691" stroke-width="1.51"/><path d="M530,911L607,987L641,860Z" fill="#f08342" stroke="#f08342" stroke-width="1.51"/><path d="M630,478L503,562L650,566Z" fill="#fea25a" stroke="#fea25a" stroke-width="1.51"/><path d="M503,562L527,686L650,566Z" fill="#fd9e57" stroke="#fd9e57" stroke-width="1.51"/><path d="M512,1223L569,1225L606,1206Z" fill="#cc7540" stroke="#cc7540" stroke-width="1.51"/><path d="M464,1191L512,1223L606,1206Z" fill="#ce7743" stroke="#ce7743" stroke-width="1.51"/><path d="M504,1025L464,1191L606,1206Z" fill="#d57b44" stroke="#d57b44" stroke-width="1.51"/><path d="M607,-13L494,15L640,78Z" fill="#ffc999" stroke="#ffc999" stroke-width="1.51"/><path d="M635,794L530,911L641,860Z" fill="#f38743" stroke="#f38743" stroke-width="1.51"/><path d="M527,686L530,911L635,794Z" fill="#f78d49" stroke="#f78d49" stroke-width="1.51"/><path d="M430,488L503,562L630,478Z" fill="#ffa863" stroke="#ffa863" stroke-width="1.51"/><path d="M537,252L618,283L631,232Z" fill="#feb97b" stroke="#feb97b" stroke-width="1.51"/><path d="M494,15L407,203L537,252Z" fill="#fec793" stroke="#fec793" stroke-width="1.51"/><path d="M543,-152L494,15L607,-13Z" fill="#ffcfa4" stroke="#ffcfa4" stroke-width="1.51"/><path d="M445,-89L494,15L543,-152Z" fill="#ffd3ab" stroke="#ffd3ab" stroke-width="1.51"/><path d="M530,911L504,1025L607,987Z" fill="#eb8245" stroke="#eb8245" stroke-width="1.51"/><path d="M527,686L359,819L530,911Z" fill="#f89351" stroke="#f89351" stroke-width="1.51"/><path d="M372,-255L543,-152L586,-245Z" fill="#ffd8b5" stroke="#ffd8b5" stroke-width="1.51"/><path d="M358,55L407,203L494,15Z" fill="#fecea0" stroke="#fecea0" stroke-width="1.51"/><path d="M366,660L359,819L527,686Z" fill="#fc9c5a" stroke="#fc9c5a" stroke-width="1.51"/><path d="M372,-255L445,-89L543,-152Z" fill="#ffd9b6" stroke="#ffd9b6" stroke-width="1.51"/><path d="M503,562L366,660L527,686Z" fill="#fda05d" stroke="#fda05d" stroke-width="1.51"/><path d="M364,1003L504,1025L530,911Z" fill="#eb864c" stroke="#eb864c" stroke-width="1.51"/><path d="M407,203L435,326L537,252Z" fill="#fec087" stroke="#fec087" stroke-width="1.51"/><path d="M359,819L364,1003L530,911Z" fill="#f28e52" stroke="#f28e52" stroke-width="1.51"/><path d="M364,1003L464,1191L504,1025Z" fill="#df834c" stroke="#df834c" stroke-width="1.51"/><path d="M464,1191L403,1281L512,1223Z" fill="#cc7a49" stroke="#cc7a49" stroke-width="1.51"/><path d="M364,1003L332,1194L464,1191Z" fill="#d78350" stroke="#d78350" stroke-width="1.51"/><path d="M430,488L366,660L503,562Z" fill="#ffa866" stroke="#ffa866" stroke-width="1.51"/><path d="M337,445L430,488L435,326Z" fill="#ffb679" stroke="#ffb679" stroke-width="1.51"/><path d="M445,-89L358,55L494,15Z" fill="#ffd3aa" stroke="#ffd3aa" stroke-width="1.51"/><path d="M372,-255L301,-72L445,-89Z" fill="#ffdcbb" stroke="#ffdcbb" stroke-width="1.51"/><path d="M301,-72L358,55L445,-89Z" fill="#fed8b3" stroke="#fed8b3" stroke-width="1.51"/><path d="M332,1194L403,1281L464,1191Z" fill="#cd7d4e" stroke="#cd7d4e" stroke-width="1.51"/><path d="M272,1047L332,1194L364,1003Z" fill="#de8856" stroke="#de8856" stroke-width="1.51"/><path d="M306,689L359,819L366,660Z" fill="#fca061" stroke="#fca061" stroke-width="1.51"/><path d="M337,445L366,660L430,488Z" fill="#ffae6e" stroke="#ffae6e" stroke-width="1.51"/><path d="M407,203L310,292L435,326Z" fill="#fec38c" stroke="#fec38c" stroke-width="1.51"/><path d="M359,819L266,861L364,1003Z" fill="#f4945a" stroke="#f4945a" stroke-width="1.51"/><path d="M310,292L337,445L435,326Z" fill="#febd84" stroke="#febd84" stroke-width="1.51"/><path d="M358,55L277,198L407,203Z" fill="#fdcea0" stroke="#fdcea0" stroke-width="1.51"/><path d="M272,1047L259,1152L332,1194Z" fill="#d98757" stroke="#d98757" stroke-width="1.51"/><path d="M337,445L202,583L366,660Z" fill="#ffaf71" stroke="#ffaf71" stroke-width="1.51"/><path d="M250,-102L301,-72L372,-255Z" fill="#ffdfc0" stroke="#ffdfc0" stroke-width="1.51"/><path d="M277,198L310,292L407,203Z" fill="#fec996" stroke="#fec996" stroke-width="1.51"/><path d="M332,1194L170,1295L403,1281Z" fill="#cb8155" stroke="#cb8155" stroke-width="1.51"/><path d="M310,292L219,356L337,445Z" fill="#ffc088" stroke="#ffc088" stroke-width="1.51"/><path d="M210,67L277,198L358,55Z" fill="#fed4aa" stroke="#fed4aa" stroke-width="1.51"/><path d="M306,689L201,761L359,819Z" fill="#fc9f62" stroke="#fc9f62" stroke-width="1.51"/><path d="M266,861L272,1047L364,1003Z" fill="#ee9059" stroke="#ee9059" stroke-width="1.51"/><path d="M202,583L306,689L366,660Z" fill="#fea86b" stroke="#fea86b" stroke-width="1.51"/><path d="M180,-259L250,-102L372,-255Z" fill="#ffe3c8" stroke="#ffe3c8" stroke-width="1.51"/><path d="M301,-72L210,67L358,55Z" fill="#fed9b3" stroke="#fed9b3" stroke-width="1.51"/><path d="M201,761L266,861L359,819Z" fill="#f99c61" stroke="#f99c61" stroke-width="1.51"/><path d="M219,356L215,416L337,445Z" fill="#ffbd86" stroke="#ffbd86" stroke-width="1.51"/><path d="M259,1152L170,1295L332,1194Z" fill="#d08459" stroke="#d08459" stroke-width="1.51"/><path d="M215,416L202,583L337,445Z" fill="#ffb77e" stroke="#ffb77e" stroke-width="1.51"/><path d="M266,861L137,876L272,1047Z" fill="#f39560" stroke="#f39560" stroke-width="1.51"/><path d="M137,876L117,1033L272,1047Z" fill="#ee9362" stroke="#ee9362" stroke-width="1.51"/><path d="M250,-102L210,67L301,-72Z" fill="#feddbb" stroke="#feddbb" stroke-width="1.51"/><path d="M277,198L219,356L310,292Z" fill="#ffc694" stroke="#ffc694" stroke-width="1.51"/><path d="M202,583L201,761L306,689Z" fill="#ffa76c" stroke="#ffa76c" stroke-width="1.51"/><path d="M115,-64L210,67L250,-102Z" fill="#fedfbf" stroke="#fedfbf" stroke-width="1.51"/><path d="M117,1033L259,1152L272,1047Z" fill="#e18c5e" stroke="#e18c5e" stroke-width="1.51"/><path d="M86,237L219,356L277,198Z" fill="#ffca9c" stroke="#ffca9c" stroke-width="1.51"/><path d="M210,67L86,237L277,198Z" fill="#fed3a9" stroke="#fed3a9" stroke-width="1.51"/><path d="M-73,-204L39,-196L180,-259Z" fill="#ffebd9" stroke="#ffebd9" stroke-width="1.51"/><path d="M86,1151L170,1295L259,1152Z" fill="#d2875e" stroke="#d2875e" stroke-width="1.51"/><path d="M117,1033L86,1151L259,1152Z" fill="#dd8c61" stroke="#dd8c61" stroke-width="1.51"/><path d="M201,761L137,876L266,861Z" fill="#f99d66" stroke="#f99d66" stroke-width="1.51"/><path d="M109,747L201,761L202,583Z" fill="#ffa86f" stroke="#ffa86f" stroke-width="1.51"/><path d="M180,-259L115,-64L250,-102Z" fill="#ffe3ca" stroke="#ffe3ca" stroke-width="1.51"/><path d="M70,435L202,583L215,416Z" fill="#ffbb84" stroke="#ffbb84" stroke-width="1.51"/><path d="M39,-196L115,-64L180,-259Z" fill="#ffe7d1" stroke="#ffe7d1" stroke-width="1.51"/><path d="M70,435L88,590L202,583Z" fill="#ffb881" stroke="#ffb881" stroke-width="1.51"/><path d="M88,590L109,747L202,583Z" fill="#ffaf77" stroke="#ffaf77" stroke-width="1.51"/><path d="M115,-64L38,41L210,67Z" fill="#fedfbf" stroke="#fedfbf" stroke-width="1.51"/><path d="M38,41L86,237L210,67Z" fill="#fed9b5" stroke="#fed9b5" stroke-width="1.51"/><path d="M86,237L35,396L219,356Z" fill="#ffc899" stroke="#ffc899" stroke-width="1.51"/><path d="M70,435L215,416L219,356Z" fill="#ffc18c" stroke="#ffc18c" stroke-width="1.51"/><path d="M35,396L70,435L219,356Z" fill="#ffc391" stroke="#ffc391" stroke-width="1.51"/><path d="M-38,1243L-213,1239L106,1324Z" fill="#cd8b6a" stroke="#cd8b6a" stroke-width="1.51"/><path d="M109,747L137,876L201,761Z" fill="#fca26b" stroke="#fca26b" stroke-width="1.51"/><path d="M86,1151L106,1324L170,1295Z" fill="#cd8761" stroke="#cd8761" stroke-width="1.51"/><path d="M86,1151L-38,1243L106,1324Z" fill="#cf8a66" stroke="#cf8a66" stroke-width="1.51"/><path d="M109,747L-87,884L137,876Z" fill="#fba270" stroke="#fba270" stroke-width="1.51"/><path d="M-87,884L-33,975L137,876Z" fill="#f79d6f" stroke="#f79d6f" stroke-width="1.51"/><path d="M-33,975L117,1033L137,876Z" fill="#f2986a" stroke="#f2986a" stroke-width="1.51"/><path d="M-55,75L-66,207L38,41Z" fill="#fedebe" stroke="#fedebe" stroke-width="1.51"/><path d="M-34,343L35,396L86,237Z" fill="#ffcb9f" stroke="#ffcb9f" stroke-width="1.51"/><path d="M38,41L-66,207L86,237Z" fill="#fed9b6" stroke="#fed9b6" stroke-width="1.51"/><path d="M88,590L-54,616L109,747Z" fill="#ffb17c" stroke="#ffb17c" stroke-width="1.51"/><path d="M-54,616L-101,711L109,747Z" fill="#ffae7b" stroke="#ffae7b" stroke-width="1.51"/><path d="M39,-196L-81,-72L115,-64Z" fill="#fee8d2" stroke="#fee8d2" stroke-width="1.51"/><path d="M-83,1099L86,1151L117,1033Z" fill="#e09169" stroke="#e09169" stroke-width="1.51"/><path d="M-33,975L-83,1099L117,1033Z" fill="#e9966c" stroke="#e9966c" stroke-width="1.51"/><path d="M-101,711L-87,884L109,747Z" fill="#fea876" stroke="#fea876" stroke-width="1.51"/><path d="M-81,-72L38,41L115,-64Z" fill="#fee4cb" stroke="#fee4cb" stroke-width="1.51"/><path d="M70,435L-102,506L88,590Z" fill="#ffbd8a" stroke="#ffbd8a" stroke-width="1.51"/><path d="M-102,506L-54,616L88,590Z" fill="#ffb986" stroke="#ffb986" stroke-width="1.51"/><path d="M-66,207L-34,343L86,237Z" fill="#ffd2a9" stroke="#ffd2a9" stroke-width="1.51"/><path d="M-83,1099L-38,1243L86,1151Z" fill="#d88f6a" stroke="#d88f6a" stroke-width="1.51"/><path d="M35,396L-102,506L70,435Z" fill="#ffc292" stroke="#ffc292" stroke-width="1.51"/><path d="M-34,343L-102,506L35,396Z" fill="#ffc697" stroke="#ffc697" stroke-width="1.51"/><path d="M-81,-72L-55,75L38,41Z" fill="#fee3c9" stroke="#fee3c9" stroke-width="1.51"/><path d="M-73,-204L-81,-72L39,-196Z" fill="#ffebd8" stroke="#ffebd8" stroke-width="1.51"/><path d="M-101,711L-192,786L-87,884Z" fill="#ffa97a" stroke="#ffa97a" stroke-width="1.51"/><path d="M-167,-46L-136,66L-81,-72Z" fill="#ffe8d1" stroke="#ffe8d1" stroke-width="1.51"/><path d="M-136,66L-66,207L-55,75Z" fill="#ffdfc0" stroke="#ffdfc0" stroke-width="1.51"/><path d="M-81,-72L-136,66L-55,75Z" fill="#ffe4ca" stroke="#ffe4ca" stroke-width="1.51"/><path d="M-164,1196L-213,1239L-38,1243Z" fill="#d38f6f" stroke="#d38f6f" stroke-width="1.51"/><path d="M-83,1099L-164,1196L-38,1243Z" fill="#d7906d" stroke="#d7906d" stroke-width="1.51"/><path d="M-163,425L-102,506L-34,343Z" fill="#ffc699" stroke="#ffc699" stroke-width="1.51"/><path d="M-153,349L-163,425L-34,343Z" fill="#ffcba0" stroke="#ffcba0" stroke-width="1.51"/><path d="M-66,207L-153,349L-34,343Z" fill="#ffd0a8" stroke="#ffd0a8" stroke-width="1.51"/><path d="M-161,1055L-83,1099L-33,975Z" fill="#e99770" stroke="#e99770" stroke-width="1.51"/><path d="M-87,884L-161,1055L-33,975Z" fill="#f39c72" stroke="#f39c72" stroke-width="1.51"/><path d="M-180,-150L-81,-72L-73,-204Z" fill="#ffecdb" stroke="#ffecdb" stroke-width="1.51"/><path d="M-136,66L-223,143L-66,207Z" fill="#ffdfc0" stroke="#ffdfc0" stroke-width="1.51"/><path d="M-217,595L-101,711L-54,616Z" fill="#ffb684" stroke="#ffb684" stroke-width="1.51"/><path d="M-102,506L-217,595L-54,616Z" fill="#ffbb8a" stroke="#ffbb8a" stroke-width="1.51"/><path d="M-227,886L-161,1055L-87,884Z" fill="#f79f75" stroke="#f79f75" stroke-width="1.51"/><path d="M-223,143L-153,349L-66,207Z" fill="#ffd8b4" stroke="#ffd8b4" stroke-width="1.51"/><path d="M-192,786L-227,886L-87,884Z" fill="#fca67a" stroke="#fca67a" stroke-width="1.51"/><path d="M-161,1055L-164,1196L-83,1099Z" fill="#e09471" stroke="#e09471" stroke-width="1.51"/><path d="M-180,-150L-167,-46L-81,-72Z" fill="#ffebd8" stroke="#ffebd8" stroke-width="1.51"/><path d="M-217,595L-192,786L-101,711Z" fill="#ffb282" stroke="#ffb282" stroke-width="1.51"/><path d="M-163,425L-217,595L-102,506Z" fill="#ffc193" stroke="#ffc193" stroke-width="1.51"/><path d="M-167,-46L-223,143L-136,66Z" fill="#ffe5cb" stroke="#ffe5cb" stroke-width="1.51"/><path d="M-213,1239L-164,1196L-161,1055Z" fill="#da9371" stroke="#da9371" stroke-width="1.51"/><path d="M-223,143L-163,425L-153,349Z" fill="#ffd2ab" stroke="#ffd2ab" stroke-width="1.51"/><path d="M-223,143L-217,595L-163,425Z" fill="#ffcca2" stroke="#ffcca2" stroke-width="1.51"/><path d="M-227,886L-213,1239L-161,1055Z" fill="#e89975" stroke="#e89975" stroke-width="1.51"/><path d="M-180,-150L-223,143L-167,-46Z" fill="#ffe9d4" stroke="#ffe9d4" stroke-width="1.51"/><path d="M-217,595L-227,886L-192,786Z" fill="#ffae7f" stroke="#ffae7f" stroke-width="1.51"/><path d="M-223,143L-227,886L-217,595Z" fill="#ffc092" stroke="#ffc092" stroke-width="1.51"/></svg>